<?xml version="1.0" encoding="utf-8" standalone="no"?>
<!DOCTYPE svg PUBLIC "-//W3C//DTD SVG 1.1//EN"
  "http://www.w3.org/Graphics/SVG/1.1/DTD/svg11.dtd">
<!-- Created with matplotlib (https://matplotlib.org/) -->
<svg height="288pt" version="1.1" viewBox="0 0 432 288" width="432pt" xmlns="http://www.w3.org/2000/svg" xmlns:xlink="http://www.w3.org/1999/xlink">
 <metadata>
  <rdf:RDF xmlns:cc="http://creativecommons.org/ns#" xmlns:dc="http://purl.org/dc/elements/1.1/" xmlns:rdf="http://www.w3.org/1999/02/22-rdf-syntax-ns#">
   <cc:Work>
    <dc:type rdf:resource="http://purl.org/dc/dcmitype/StillImage"/>
    <dc:date>2020-12-11T17:51:05.018777</dc:date>
    <dc:format>image/svg+xml</dc:format>
    <dc:creator>
     <cc:Agent>
      <dc:title>Matplotlib v3.3.1, https://matplotlib.org/</dc:title>
     </cc:Agent>
    </dc:creator>
   </cc:Work>
  </rdf:RDF>
 </metadata>
 <defs>
  <style type="text/css">*{stroke-linecap:butt;stroke-linejoin:round;}</style>
 </defs>
 <g id="figure_1">
  <g id="patch_1">
   <path d="M 0 288 
L 432 288 
L 432 0 
L 0 0 
z
" style="fill:#ffffff;"/>
  </g>
  <g id="axes_1">
   <g id="patch_2">
    <path d="M 141.118407 252 
L 301.681593 252 
L 301.681593 34.56 
L 141.118407 34.56 
z
" style="fill:#ffffff;"/>
   </g>
   <g id="PatchCollection_1">
    <path clip-path="url(#p96ced2d261)" d="M 215.540661 184.429553 
L 216.093107 186.200881 
L 215.717647 186.842254 
L 216.783387 188.172463 
L 215.991881 188.440992 
L 216.193537 193.113349 
L 218.157261 194.421476 
L 218.299392 194.934931 
L 217.472552 195.71996 
L 218.198325 195.854732 
L 218.296368 196.700421 
L 220.732958 198.782918 
L 221.4834 200.313381 
L 220.953236 204.695127 
L 221.96502 205.909346 
L 219.95896 207.012651 
L 218.486565 205.734472 
L 218.340455 206.969503 
L 218.949722 207.748694 
L 219.210268 209.472053 
L 219.175889 210.318503 
L 218.638722 210.492869 
L 217.882868 210.633987 
L 218.052056 211.104801 
L 216.34092 212.046176 
L 216.077828 211.525361 
L 214.730055 211.987039 
L 214.88476 212.68425 
L 214.014469 214.184257 
L 214.17172 214.704818 
L 215.257355 216.438328 
L 215.727515 219.428443 
L 216.381665 220.838348 
L 216.370047 222.988104 
L 216.316887 223.200288 
L 216.039311 224.193693 
L 215.868372 224.241917 
L 215.962755 225.186337 
L 215.869486 227.050051 
L 216.309566 228.157417 
L 215.23921 229.025441 
L 216.429095 231.122405 
L 215.439912 232.746778 
L 215.153741 231.697027 
L 214.651271 231.75058 
L 213.700286 232.38434 
L 211.668601 231.786621 
L 209.316207 233.470131 
L 207.186319 235.218363 
L 206.181697 234.975722 
L 204.575926 233.227491 
L 201.193444 232.324949 
L 198.522888 231.579514 
L 196.304188 232.322918 
L 195.795193 230.894231 
L 195.212983 230.233061 
L 194.666426 230.73687 
L 195.042204 231.824692 
L 193.964209 231.391188 
L 194.157112 229.865546 
L 192.123516 228.630262 
L 191.430531 228.473916 
L 190.496735 229.271635 
L 189.88906 229.600824 
L 188.832711 231.852358 
L 189.939673 232.703377 
L 192.028656 231.991952 
L 191.85724 233.602873 
L 191.33583 233.75795 
L 191.438648 233.305156 
L 190.676905 232.892718 
L 189.644908 233.683584 
L 190.248922 234.220642 
L 189.16472 234.567091 
L 185.899381 233.349826 
L 182.675582 235.001103 
L 181.068855 235.074707 
L 180.692281 234.089424 
L 177.822138 235.281561 
L 176.553946 234.730543 
L 177.436173 234.466836 
L 177.153186 234.064297 
L 177.497291 233.727239 
L 175.836768 234.000337 
L 174.73092 232.014541 
L 174.604069 231.287634 
L 175.151581 230.099558 
L 174.900426 229.095238 
L 175.357058 226.590658 
L 176.360884 224.232018 
L 175.51033 222.698255 
L 175.649754 220.65586 
L 175.659781 220.510174 
L 177.295793 217.061427 
L 177.500474 215.93325 
L 178.23691 215.425379 
L 178.139027 213.471563 
L 178.668395 211.227391 
L 179.25713 210.615966 
L 179.271136 208.550982 
L 181.735102 205.352998 
L 181.882803 204.46137 
L 183.762967 203.234968 
L 184.631984 200.848663 
L 186.080187 199.058807 
L 186.536182 198.694592 
L 186.791953 198.465657 
L 187.788617 196.176053 
L 188.819501 192.644311 
L 188.54654 192.343548 
L 188.952081 191.869688 
L 189.810276 191.02806 
L 190.133053 190.849125 
L 189.571535 190.147345 
L 189.872826 189.562825 
L 190.342031 188.336931 
L 189.784651 188.381601 
L 190.29301 187.769923 
L 189.933625 187.027027 
L 189.449458 186.555705 
L 189.111242 184.458487 
L 189.105353 183.63691 
L 189.101215 183.403406 
L 189.950496 183.376502 
L 191.630914 185.01788 
L 192.266283 184.377522 
L 191.757288 182.867363 
L 193.420834 182.490711 
L 193.075456 182.697819 
L 193.561055 184.623209 
L 196.695246 185.427019 
L 196.691904 185.912047 
L 195.560112 186.259257 
L 195.134994 187.780076 
L 195.913767 188.174494 
L 197.503464 186.662304 
L 197.209494 186.265094 
L 197.52702 185.377019 
L 199.621573 184.857727 
L 200.306442 184.971433 
L 199.682373 184.389451 
L 199.93321 183.553914 
L 202.092861 183.456706 
L 203.133453 181.587408 
L 204.833925 181.369894 
L 204.626539 181.188421 
L 205.015209 180.543241 
L 204.659485 179.711765 
L 203.982256 180.334864 
L 202.999599 179.415063 
L 203.318079 178.709476 
L 205.79812 178.420135 
L 208.619083 178.12191 
L 208.661738 178.399069 
L 208.35997 180.616591 
L 209.612245 179.758719 
L 211.532678 180.347301 
L 212.231711 183.524219 
L 212.868354 183.432848 
L 213.040884 185.904686 
L 214.540654 185.871438 
L 215.086575 185.139201 
L 214.806453 184.75925 
L 215.540661 184.429553 
" style="fill:#1f77b4;"/>
    <path clip-path="url(#p96ced2d261)" d="M 221.380423 162.629961 
L 222.046988 163.817784 
L 223.768151 164.360172 
L 223.616789 165.931499 
L 223.920468 167.042925 
L 225.616006 167.630999 
L 225.815753 166.991656 
L 227.762128 166.160434 
L 225.596111 164.677686 
L 225.594042 163.601285 
L 228.330331 162.865749 
L 229.261899 163.020572 
L 229.899496 164.014231 
L 231.961104 163.514483 
L 232.65966 164.443929 
L 232.271785 164.858652 
L 232.3789 165.489619 
L 233.148919 165.946474 
L 234.260497 165.851042 
L 234.649963 163.684535 
L 234.027327 160.880207 
L 234.35854 160.661424 
L 235.597128 159.613958 
L 236.872482 159.731471 
L 237.144806 160.122082 
L 236.791629 160.305078 
L 236.820596 161.576403 
L 237.790521 161.874628 
L 238.399788 163.330218 
L 239.727824 162.708388 
L 242.784663 162.215746 
L 243.232541 162.939353 
L 244.76669 162.057877 
L 245.176847 162.26397 
L 246.57189 164.461188 
L 247.647816 164.757636 
L 248.269179 165.780737 
L 247.486427 166.423887 
L 248.599278 167.249525 
L 249.361021 168.476434 
L 249.223666 170.022381 
L 250.424373 170.888628 
L 250.192795 171.353351 
L 250.486605 171.432032 
L 253.839006 173.292446 
L 253.530552 174.224684 
L 254.811477 175.238394 
L 253.569387 177.053123 
L 253.565727 178.26252 
L 252.432503 178.962269 
L 253.090951 180.349839 
L 254.344341 180.77979 
L 255.492525 184.449096 
L 256.294695 184.934631 
L 256.12885 186.124231 
L 258.100691 188.196829 
L 258.437475 189.375768 
L 261.521848 189.735922 
L 264.678163 193.804722 
L 264.773182 194.042033 
L 264.668772 194.554472 
L 265.212943 195.09483 
L 266.446756 195.149145 
L 268.279013 196.91565 
L 268.589376 198.716927 
L 270.047447 199.678099 
L 270.033759 198.994594 
L 270.736931 199.027843 
L 271.997164 199.552972 
L 272.386153 200.914146 
L 273.366901 201.302726 
L 275.319643 204.007053 
L 274.628885 205.479395 
L 275.100797 207.890066 
L 273.530359 210.570281 
L 270.98538 209.329159 
L 270.128778 208.591592 
L 268.936028 209.659617 
L 269.248142 210.597692 
L 268.449156 214.145424 
L 265.995695 216.150509 
L 264.775728 216.119291 
L 262.34837 217.025386 
L 261.077472 218.345189 
L 259.903344 218.467779 
L 258.003762 220.727941 
L 258.164196 221.737083 
L 259.732565 223.676432 
L 259.981014 224.540141 
L 260.552878 224.683036 
L 262.020021 227.449799 
L 260.446718 230.605398 
L 262.721442 230.973927 
L 263.516927 232.887641 
L 262.651411 234.163536 
L 262.451824 235.441714 
L 262.691042 235.761259 
L 262.714121 236.482582 
L 262.010312 237.211265 
L 258.937876 235.087144 
L 258.444637 234.26912 
L 258.890923 233.483837 
L 257.895851 231.821901 
L 257.116282 231.656671 
L 255.665215 231.886622 
L 255.194099 232.923175 
L 253.982091 233.110231 
L 252.879426 231.306416 
L 251.422311 231.279258 
L 250.135179 231.73586 
L 249.880362 231.355147 
L 250.257891 230.381031 
L 248.969327 231.196009 
L 249.341604 233.493736 
L 247.007354 233.267846 
L 244.665623 233.393989 
L 243.563754 234.218866 
L 240.19878 233.935108 
L 239.236654 235.90999 
L 236.65491 236.400348 
L 236.234567 236.986899 
L 236.833329 237.681318 
L 235.460728 237.602384 
L 234.389258 238.881831 
L 233.664122 238.886907 
L 234.159112 238.102894 
L 233.391162 237.962284 
L 231.954419 238.932085 
L 230.388437 238.911781 
L 229.985761 238.917872 
L 228.981617 236.994259 
L 228.073287 236.741466 
L 228.612523 235.832325 
L 228.314574 235.346282 
L 226.586727 235.923442 
L 224.051616 234.581812 
L 223.33794 235.420902 
L 221.442655 234.865315 
L 221.074676 236.188164 
L 221.590993 236.719639 
L 221.776415 238.015076 
L 219.223797 241.192248 
L 217.048389 242.116364 
L 217.933004 239.243762 
L 215.798978 239.967877 
L 215.331364 238.623962 
L 215.878877 238.107462 
L 215.665602 237.320149 
L 214.202279 236.712532 
L 213.697421 235.107956 
L 212.212134 235.557197 
L 211.276111 235.073184 
L 211.404553 234.068865 
L 210.476965 234.026225 
L 210.016991 235.395521 
L 209.122349 235.688669 
L 207.186319 235.218363 
L 209.316207 233.470131 
L 211.668601 231.786621 
L 213.700286 232.38434 
L 214.651271 231.75058 
L 215.153741 231.697027 
L 215.439912 232.746778 
L 216.429095 231.122405 
L 215.23921 229.025441 
L 216.309566 228.157417 
L 215.869486 227.050051 
L 215.962755 225.186337 
L 215.868372 224.241917 
L 216.039311 224.193693 
L 216.316887 223.200288 
L 216.370047 222.988104 
L 216.381665 220.838348 
L 215.727515 219.428443 
L 215.257355 216.438328 
L 214.17172 214.704818 
L 214.014469 214.184257 
L 214.88476 212.68425 
L 214.730055 211.987039 
L 216.077828 211.525361 
L 216.34092 212.046176 
L 218.052056 211.104801 
L 217.882868 210.633987 
L 218.638722 210.492869 
L 219.175889 210.318503 
L 219.210268 209.472053 
L 218.949722 207.748694 
L 218.340455 206.969503 
L 218.486565 205.734472 
L 219.95896 207.012651 
L 221.96502 205.909346 
L 220.953236 204.695127 
L 221.4834 200.313381 
L 220.732958 198.782918 
L 218.296368 196.700421 
L 218.198325 195.854732 
L 217.472552 195.71996 
L 218.299392 194.934931 
L 218.157261 194.421476 
L 216.193537 193.113349 
L 215.991881 188.440992 
L 216.783387 188.172463 
L 215.717647 186.842254 
L 216.093107 186.200881 
L 215.540661 184.429553 
L 214.806453 184.75925 
L 215.086575 185.139201 
L 214.540654 185.871438 
L 213.040884 185.904686 
L 212.868354 183.432848 
L 212.231711 183.524219 
L 211.532678 180.347301 
L 209.612245 179.758719 
L 208.35997 180.616591 
L 208.661738 178.399069 
L 208.619083 178.12191 
L 205.79812 178.420135 
L 203.318079 178.709476 
L 202.999599 179.415063 
L 203.982256 180.334864 
L 204.659485 179.711765 
L 205.015209 180.543241 
L 204.626539 181.188421 
L 204.833925 181.369894 
L 203.133453 181.587408 
L 202.092861 183.456706 
L 199.93321 183.553914 
L 199.61457 182.931323 
L 199.695424 180.707962 
L 200.693998 179.356179 
L 198.867948 176.725457 
L 199.090773 176.222409 
L 198.549786 173.049298 
L 199.070719 173.025694 
L 198.804443 171.862744 
L 197.910597 171.591931 
L 198.143449 171.125939 
L 198.584324 169.997 
L 202.049569 169.116793 
L 204.272406 169.538622 
L 204.739384 170.60284 
L 206.556998 170.14294 
L 206.168487 167.076428 
L 206.480601 166.888356 
L 208.211791 167.016276 
L 210.165169 164.951038 
L 209.958738 163.790119 
L 210.578828 162.046202 
L 211.982306 162.741383 
L 213.18572 162.179452 
L 214.501182 160.99036 
L 214.867729 159.721065 
L 216.235238 158.628166 
L 219.471291 160.284265 
L 220.44997 162.772601 
L 221.380423 162.629961 
" style="fill:#1f77b4;"/>
    <path clip-path="url(#p96ced2d261)" d="M 198.769905 75.733627 
L 198.645919 75.469666 
L 198.208864 74.539459 
L 198.650534 74.364077 
L 201.47293 74.349356 
L 202.905057 74.774485 
L 206.027152 78.726026 
L 207.057717 81.051671 
L 209.914014 82.53518 
L 210.530921 83.862598 
L 210.780325 83.996354 
L 212.01955 85.776312 
L 212.6433 85.079862 
L 212.880609 86.177583 
L 215.034371 84.912349 
L 216.940319 86.603219 
L 219.116841 85.69154 
L 221.677258 86.894083 
L 222.150602 87.182917 
L 223.680613 87.450177 
L 225.400662 87.310837 
L 227.484393 88.926326 
L 228.826594 87.855509 
L 229.93483 88.224293 
L 231.558427 91.248418 
L 233.225953 92.112635 
L 232.861157 92.711369 
L 234.355198 93.591068 
L 235.519299 95.288538 
L 237.321475 94.706809 
L 239.640127 95.775088 
L 238.282646 96.498188 
L 237.961937 97.710884 
L 238.163912 98.183729 
L 234.827587 99.861909 
L 230.747345 98.885001 
L 229.16497 100.409373 
L 227.604081 100.438308 
L 226.412446 100.69237 
L 226.294985 101.869025 
L 226.890087 103.937562 
L 228.874979 106.574376 
L 229.759275 106.226659 
L 229.129318 107.654076 
L 230.265565 109.459922 
L 229.083957 110.093428 
L 229.071383 110.368556 
L 230.703575 112.2909 
L 231.040519 113.176183 
L 230.699119 114.189639 
L 231.498424 116.265029 
L 230.343077 117.00285 
L 230.680497 117.702599 
L 229.55937 120.630278 
L 226.96537 120.849568 
L 223.142331 121.964548 
L 224.07167 122.906938 
L 224.526711 124.396538 
L 223.39285 126.052891 
L 223.465268 127.651376 
L 224.192632 128.211784 
L 225.372808 131.149361 
L 224.989391 131.246062 
L 223.084556 133.321452 
L 221.985552 132.860283 
L 220.088357 132.55089 
L 220.025011 133.339726 
L 216.603535 136.549639 
L 214.952562 136.363344 
L 213.069214 137.92325 
L 212.831269 137.026545 
L 211.082412 137.032383 
L 209.469001 138.195586 
L 210.631828 139.194829 
L 209.598876 139.795339 
L 207.334498 138.819193 
L 207.163559 138.530359 
L 207.514667 137.251419 
L 208.527088 136.882128 
L 207.61653 134.318665 
L 208.603485 133.425514 
L 208.254446 132.722718 
L 208.995339 133.022212 
L 209.201452 132.676525 
L 208.257152 131.283372 
L 206.573551 131.557231 
L 206.225148 130.93667 
L 205.304085 130.941238 
L 204.935788 131.020426 
L 204.257604 130.955198 
L 204.268109 128.575238 
L 205.238989 127.219648 
L 205.609515 125.550097 
L 203.439996 125.746545 
L 203.787125 124.698824 
L 203.210009 124.029278 
L 202.62398 123.78613 
L 202.660746 122.737901 
L 201.310586 122.96709 
L 200.770236 119.584841 
L 200.409259 119.587379 
L 200.829762 119.026209 
L 200.579402 118.639659 
L 198.19438 117.203105 
L 198.067529 117.129246 
L 199.01549 117.403613 
L 199.494722 116.125689 
L 197.713397 114.985836 
L 200.287183 111.611201 
L 200.05274 111.016274 
L 200.394139 109.784035 
L 199.131836 109.36982 
L 197.300216 111.862217 
L 193.761438 112.104097 
L 193.566785 109.366267 
L 193.064951 108.936062 
L 190.476522 109.00459 
L 189.218675 110.705613 
L 187.108046 110.4815 
L 187.369388 111.762471 
L 189.449458 112.901562 
L 189.797543 115.275685 
L 189.416194 116.641681 
L 190.607034 117.369349 
L 188.91261 119.146261 
L 186.917372 118.882554 
L 183.912738 120.617333 
L 182.868485 120.344236 
L 182.07682 121.166574 
L 180.549833 119.953625 
L 182.501779 119.140677 
L 182.647888 117.701076 
L 180.833616 117.020363 
L 181.193796 115.397513 
L 181.684807 115.151826 
L 181.288815 114.41629 
L 182.228181 114.211467 
L 181.814682 113.822632 
L 180.655038 112.410189 
L 177.821501 111.888867 
L 177.359935 110.497744 
L 176.139173 110.036828 
L 175.549165 111.094955 
L 176.0545 111.381758 
L 175.437593 112.660444 
L 171.514602 114.954363 
L 168.039648 115.898784 
L 167.507096 115.941678 
L 166.880322 114.772383 
L 167.61453 112.597754 
L 166.269622 110.150534 
L 165.620565 110.986325 
L 161.65285 109.725406 
L 162.103434 107.773112 
L 161.841615 106.133257 
L 164.824126 105.536554 
L 166.560727 105.855591 
L 167.346185 105.738585 
L 167.608323 101.487297 
L 167.93683 100.793639 
L 169.792802 96.68093 
L 169.689189 93.811881 
L 169.309591 93.17 
L 169.924906 91.636998 
L 169.787072 90.517958 
L 169.525412 88.62531 
L 170.429763 88.466679 
L 170.668186 88.424801 
L 169.985227 88.283684 
L 166.452816 87.552716 
L 166.500405 87.175049 
L 166.622641 86.207278 
L 166.733257 85.330878 
L 166.845306 84.444072 
L 167.934284 83.637977 
L 168.041399 83.558535 
L 168.309266 83.360311 
L 168.666263 83.096097 
L 167.899427 81.975025 
L 168.540845 81.387206 
L 168.764147 81.182382 
L 170.339996 79.738213 
L 174.089503 79.345064 
L 174.092527 79.34481 
L 175.215723 79.553441 
L 175.218111 79.553948 
L 175.448734 79.507755 
L 179.35199 78.726026 
L 182.646137 78.654198 
L 182.650753 78.653944 
L 182.747204 79.245571 
L 182.84859 79.868163 
L 183.488256 80.274003 
L 183.830611 80.491262 
L 184.217053 81.089235 
L 184.746898 81.412079 
L 184.801491 81.858781 
L 184.889188 82.576043 
L 184.94951 83.069701 
L 184.971952 83.253965 
L 184.992483 83.422748 
L 183.353765 83.845339 
L 183.602215 85.030116 
L 184.113439 85.374533 
L 185.490179 86.301949 
L 186.503077 86.499919 
L 186.507215 86.500681 
L 187.092926 85.487986 
L 187.101521 85.473011 
L 187.394695 84.966156 
L 187.20593 83.349651 
L 187.201314 83.350159 
L 186.051856 83.466149 
L 185.989465 83.472494 
L 185.989625 83.471987 
L 186.14226 82.651425 
L 186.302216 81.792791 
L 187.619429 81.104209 
L 187.622613 81.102433 
L 188.288222 81.81538 
L 188.652064 82.20523 
L 191.202931 83.355742 
L 191.209457 83.358788 
L 190.218682 84.696611 
L 192.756975 83.590007 
L 192.733101 81.393297 
L 191.804399 81.637968 
L 190.660512 81.300911 
L 190.070662 79.052931 
L 190.992362 76.269416 
L 191.145792 75.805454 
L 191.518865 75.253675 
L 191.995869 74.547834 
L 192.16458 74.298087 
L 193.247668 74.203924 
L 193.251965 74.203417 
L 193.513943 74.401895 
L 193.67581 74.524484 
L 195.005279 75.531849 
L 196.266467 75.599362 
L 196.896903 75.633118 
L 198.716268 75.730581 
L 198.764971 75.733119 
L 198.769905 75.733627 
M 196.954041 96.407325 
L 197.963597 95.523311 
L 197.450463 93.740307 
L 198.042063 93.487261 
L 190.816807 91.202479 
L 190.102176 90.922528 
L 192.258166 92.458322 
L 192.801063 93.924065 
L 193.03869 94.073558 
L 193.700639 95.554275 
L 194.765105 95.680164 
L 196.954041 96.407325 
" style="fill:#1f77b4;"/>
    <path clip-path="url(#p96ced2d261)" d="M 193.566785 109.366267 
L 193.761438 112.104097 
L 197.300216 111.862217 
L 199.131836 109.36982 
L 200.394139 109.784035 
L 200.05274 111.016274 
L 200.287183 111.611201 
L 197.713397 114.985836 
L 199.494722 116.125689 
L 199.01549 117.403613 
L 198.067529 117.129246 
L 198.19438 117.203105 
L 200.579402 118.639659 
L 200.829762 119.026209 
L 200.409259 119.587379 
L 200.770236 119.584841 
L 201.310586 122.96709 
L 202.660746 122.737901 
L 202.62398 123.78613 
L 203.210009 124.029278 
L 203.787125 124.698824 
L 203.439996 125.746545 
L 205.609515 125.550097 
L 205.238989 127.219648 
L 204.268109 128.575238 
L 204.257604 130.955198 
L 204.935788 131.020426 
L 205.304085 130.941238 
L 203.659001 131.84708 
L 204.238664 132.448352 
L 200.767212 136.213343 
L 199.774368 136.152176 
L 199.522257 135.649889 
L 199.763226 134.900647 
L 198.675045 134.470696 
L 197.82656 134.586433 
L 196.548977 135.216892 
L 197.467812 136.580096 
L 197.330774 137.562842 
L 193.255944 138.256246 
L 191.232535 140.405748 
L 191.884139 141.175041 
L 193.869031 140.500926 
L 194.445351 142.951699 
L 192.828598 145.040033 
L 191.116825 144.863129 
L 190.3632 145.43166 
L 190.95289 146.955017 
L 189.983761 148.23421 
L 188.035794 150.951228 
L 187.023532 150.566454 
L 184.375258 152.820272 
L 185.03291 154.156572 
L 184.379556 155.423076 
L 183.009342 155.129419 
L 183.019528 154.41165 
L 181.882007 153.186771 
L 181.8037 151.35656 
L 179.660125 150.433713 
L 180.014098 149.33117 
L 179.648028 149.253504 
L 178.970004 148.973808 
L 178.371719 150.81874 
L 176.982088 152.008085 
L 177.220033 153.049461 
L 173.476893 154.772565 
L 172.414337 154.600483 
L 172.175119 156.344907 
L 169.842142 157.007093 
L 169.81779 156.343638 
L 169.568386 156.516735 
L 168.81476 157.593644 
L 167.354939 157.442628 
L 165.314022 158.651263 
L 164.89352 160.923608 
L 162.627868 160.784014 
L 162.41125 161.765236 
L 163.289658 163.647225 
L 161.674655 164.299004 
L 160.144326 162.976156 
L 157.24426 163.466513 
L 156.673351 163.07844 
L 157.314609 164.631239 
L 156.99199 164.623625 
L 155.992302 163.184532 
L 156.504959 161.350514 
L 155.56798 160.214214 
L 154.145243 160.275382 
L 153.828832 159.598475 
L 153.604574 159.604567 
L 153.558577 158.461668 
L 154.82088 156.94161 
L 153.462762 156.781457 
L 152.38047 154.501752 
L 151.125648 154.553782 
L 150.879744 153.684743 
L 150.600895 152.49159 
L 150.831837 151.413159 
L 151.929409 149.653506 
L 150.833906 149.108834 
L 150.642436 148.525582 
L 150.966328 147.873295 
L 148.909336 148.087002 
L 148.589105 146.633949 
L 148.416734 146.149175 
L 149.163515 145.755011 
L 149.810822 146.522527 
L 150.474681 145.349172 
L 153.337503 143.42632 
L 152.754816 143.049415 
L 153.327794 142.765658 
L 151.853012 143.088248 
L 151.701968 141.291539 
L 154.117231 138.18518 
L 153.811802 137.308526 
L 153.942313 134.559275 
L 151.997689 132.070177 
L 152.426945 130.796314 
L 151.054344 130.286667 
L 150.964259 129.446561 
L 151.259502 129.246053 
L 149.800476 128.467623 
L 150.406082 127.917113 
L 150.35722 126.368121 
L 151.554267 125.483092 
L 153.194099 126.107714 
L 152.190273 124.793241 
L 153.215745 124.585626 
L 157.035759 126.431065 
L 156.765823 125.267608 
L 158.06712 125.778271 
L 161.435755 124.15872 
L 162.021944 124.695017 
L 163.732125 122.979781 
L 163.701247 122.232062 
L 161.920081 121.055406 
L 162.649196 119.058443 
L 164.159471 119.011235 
L 166.301932 116.308177 
L 167.507096 115.941678 
L 168.039648 115.898784 
L 171.514602 114.954363 
L 175.437593 112.660444 
L 176.0545 111.381758 
L 175.549165 111.094955 
L 176.139173 110.036828 
L 177.359935 110.497744 
L 177.821501 111.888867 
L 180.655038 112.410189 
L 181.814682 113.822632 
L 182.228181 114.211467 
L 181.288815 114.41629 
L 181.684807 115.151826 
L 181.193796 115.397513 
L 180.833616 117.020363 
L 182.647888 117.701076 
L 182.501779 119.140677 
L 180.549833 119.953625 
L 182.07682 121.166574 
L 182.868485 120.344236 
L 183.912738 120.617333 
L 186.917372 118.882554 
L 188.91261 119.146261 
L 190.607034 117.369349 
L 189.416194 116.641681 
L 189.797543 115.275685 
L 189.449458 112.901562 
L 187.369388 111.762471 
L 187.108046 110.4815 
L 189.218675 110.705613 
L 190.476522 109.00459 
L 193.064951 108.936062 
L 193.566785 109.366267 
" style="fill:#1f77b4;"/>
    <path clip-path="url(#p96ced2d261)" d="M 271.679957 108.254587 
L 272.43979 108.722355 
L 272.153938 109.898249 
L 272.573644 110.033021 
L 273.785493 111.052569 
L 273.095054 112.476941 
L 272.186406 113.438113 
L 272.254845 112.709176 
L 271.392354 112.063487 
L 269.595908 112.01704 
L 268.623118 111.663739 
L 268.658293 112.518312 
L 267.880952 112.072371 
L 266.92567 111.925669 
L 265.544474 111.404601 
L 264.598423 112.060695 
L 263.363814 111.417799 
L 264.404247 109.331241 
L 264.607336 109.120581 
L 263.826335 108.94596 
L 264.010961 107.158135 
L 264.572321 106.867271 
L 265.417146 107.157627 
L 265.166786 106.677422 
L 265.470305 106.12412 
L 268.301136 105.61625 
L 269.528424 105.157111 
L 270.045696 107.03783 
L 271.679957 108.254587 
" style="fill:#1f77b4;"/>
    <path clip-path="url(#p96ced2d261)" d="M 284.433976 88.320486 
L 284.896497 90.231154 
L 283.878665 91.56644 
L 283.705657 92.30426 
L 284.037984 93.073046 
L 283.569416 94.969501 
L 280.160513 97.667483 
L 280.367899 99.337033 
L 279.90522 100.95963 
L 283.461186 102.993903 
L 284.820418 104.811424 
L 286.867542 106.217522 
L 288.055358 107.560929 
L 287.491452 108.527431 
L 287.986601 109.469567 
L 286.378919 112.042167 
L 287.437815 115.162994 
L 289.270549 116.091678 
L 288.731472 119.156921 
L 289.8943 120.290682 
L 289.281372 122.037644 
L 289.323868 123.541205 
L 288.912756 124.573189 
L 287.266876 126.610254 
L 288.141623 127.250359 
L 288.507852 129.026509 
L 289.853873 130.517125 
L 290.052028 132.022969 
L 289.490509 132.682617 
L 289.192879 132.327793 
L 288.627222 133.45191 
L 286.940438 132.697591 
L 285.000747 133.690489 
L 283.341975 134.323995 
L 280.473423 133.716632 
L 279.589763 134.205974 
L 277.81544 137.737716 
L 275.252795 137.885432 
L 272.959927 137.955991 
L 270.51713 137.77731 
L 268.518391 136.2971 
L 265.302709 137.176038 
L 265.267853 134.140238 
L 264.424302 132.215102 
L 263.331505 132.013832 
L 262.770145 131.01002 
L 264.532372 129.920675 
L 264.552426 127.092744 
L 263.922468 125.699844 
L 264.359842 125.631062 
L 262.659688 125.364309 
L 261.522962 124.583595 
L 261.330378 123.719886 
L 259.61399 123.717347 
L 259.47743 122.886887 
L 258.293752 122.593992 
L 256.490781 121.73942 
L 254.626851 122.451352 
L 252.242784 120.962005 
L 252.028235 120.922665 
L 251.068496 119.723421 
L 250.446178 119.427734 
L 249.49217 117.75133 
L 250.773413 116.292441 
L 249.932726 115.773403 
L 250.946102 113.319077 
L 250.711658 111.319322 
L 251.090142 110.542414 
L 251.306601 109.921599 
L 250.151731 108.923372 
L 248.772445 109.21652 
L 248.321702 108.468801 
L 249.716109 106.084272 
L 249.851395 105.018531 
L 249.24563 103.565225 
L 249.434076 102.432987 
L 250.008168 101.969787 
L 249.765608 100.254297 
L 248.010862 100.397698 
L 248.060201 99.473836 
L 244.368471 99.374851 
L 243.23079 98.761396 
L 243.627419 97.968246 
L 240.130341 96.417985 
L 240.302076 95.704276 
L 239.640127 95.775088 
L 237.321475 94.706809 
L 235.519299 95.288538 
L 234.355198 93.591068 
L 238.634072 93.506296 
L 239.187951 92.47152 
L 238.93027 91.385221 
L 241.273274 90.490293 
L 241.728951 91.178113 
L 243.318488 90.883695 
L 246.33681 89.08318 
L 246.954513 87.820484 
L 246.762724 87.270989 
L 247.262647 87.313628 
L 251.216198 88.532162 
L 251.322039 88.615665 
L 253.129467 90.343592 
L 256.465793 90.208566 
L 258.192208 91.885984 
L 261.388949 91.600958 
L 261.630555 91.850705 
L 261.034817 92.262636 
L 261.714114 92.499439 
L 264.385307 90.436993 
L 265.800086 90.788517 
L 266.697752 89.557801 
L 268.446768 90.090037 
L 269.64859 89.282419 
L 270.290485 88.563127 
L 270.728177 86.548904 
L 273.259467 84.528083 
L 275.122124 84.02935 
L 274.344465 83.655744 
L 274.666288 82.836958 
L 276.968388 85.775297 
L 281.719969 85.972506 
L 281.414381 87.608554 
L 279.447951 90.038514 
L 282.108003 90.094352 
L 282.91256 88.759574 
L 284.433976 88.320486 
M 264.572321 106.867271 
L 264.010961 107.158135 
L 263.826335 108.94596 
L 264.607336 109.120581 
L 264.404247 109.331241 
L 263.363814 111.417799 
L 264.598423 112.060695 
L 265.544474 111.404601 
L 266.92567 111.925669 
L 267.880952 112.072371 
L 268.658293 112.518312 
L 268.623118 111.663739 
L 269.595908 112.01704 
L 271.392354 112.063487 
L 272.254845 112.709176 
L 272.186406 113.438113 
L 273.095054 112.476941 
L 273.785493 111.052569 
L 272.573644 110.033021 
L 272.153938 109.898249 
L 272.43979 108.722355 
L 271.679957 108.254587 
L 270.045696 107.03783 
L 269.528424 105.157111 
L 268.301136 105.61625 
L 265.470305 106.12412 
L 265.166786 106.677422 
L 265.417146 107.157627 
L 264.572321 106.867271 
" style="fill:#1f77b4;"/>
    <path clip-path="url(#p96ced2d261)" d="M 196.954041 96.407325 
L 194.765105 95.680164 
L 193.700639 95.554275 
L 193.03869 94.073558 
L 192.801063 93.924065 
L 192.258166 92.458322 
L 190.102176 90.922528 
L 190.816807 91.202479 
L 198.042063 93.487261 
L 197.450463 93.740307 
L 197.963597 95.523311 
L 196.954041 96.407325 
" style="fill:#1f77b4;"/>
    <path clip-path="url(#p96ced2d261)" d="M 190.660512 81.300911 
L 191.804399 81.637968 
L 192.733101 81.393297 
L 192.756975 83.590007 
L 190.218682 84.696611 
L 191.209457 83.358788 
L 190.980743 82.975284 
L 190.704917 82.512845 
L 190.215499 81.692537 
L 190.068275 81.445835 
L 190.660512 81.300911 
" style="fill:#1f77b4;"/>
    <path clip-path="url(#p96ced2d261)" d="M 217.976773 84.089248 
L 219.397759 85.274787 
L 219.116841 85.69154 
L 216.940319 86.603219 
L 215.034371 84.912349 
L 212.880609 86.177583 
L 212.6433 85.079862 
L 212.01955 85.776312 
L 210.780325 83.996354 
L 210.530921 83.862598 
L 209.914014 82.53518 
L 210.553681 80.761568 
L 211.423812 81.851167 
L 213.340424 80.115119 
L 215.312265 79.442019 
L 215.368608 78.676026 
L 217.254184 78.357243 
L 216.442306 79.42476 
L 217.739305 80.602684 
L 217.41605 81.862588 
L 216.630274 82.046599 
L 216.615472 82.853964 
L 217.976773 84.089248 
" style="fill:#1f77b4;"/>
    <path clip-path="url(#p96ced2d261)" d="M 209.201452 132.676525 
L 208.995339 133.022212 
L 208.254446 132.722718 
L 208.603485 133.425514 
L 207.61653 134.318665 
L 208.527088 136.882128 
L 207.514667 137.251419 
L 207.163559 138.530359 
L 207.334498 138.819193 
L 209.598876 139.795339 
L 210.631828 139.194829 
L 209.469001 138.195586 
L 211.082412 137.032383 
L 212.831269 137.026545 
L 213.069214 137.92325 
L 213.394379 139.403206 
L 215.277727 141.667175 
L 217.503429 142.609819 
L 217.96595 142.759059 
L 217.552292 143.791804 
L 217.152799 143.866932 
L 216.092948 143.906272 
L 216.496579 145.981916 
L 217.634737 146.778112 
L 217.427669 147.14385 
L 217.112053 147.486999 
L 214.55291 147.627609 
L 215.226318 148.833705 
L 213.407271 149.289291 
L 215.100741 150.500211 
L 214.576625 151.722044 
L 213.449767 151.982451 
L 213.034836 153.352508 
L 213.276601 154.000988 
L 212.325934 155.76927 
L 212.276754 156.718259 
L 213.584576 156.852778 
L 213.399791 155.973078 
L 214.241591 155.656833 
L 215.444209 156.646178 
L 214.802951 157.324861 
L 214.867729 159.721065 
L 214.501182 160.99036 
L 213.18572 162.179452 
L 211.982306 162.741383 
L 210.578828 162.046202 
L 209.958738 163.790119 
L 210.165169 164.951038 
L 208.211791 167.016276 
L 206.480601 166.888356 
L 206.168487 167.076428 
L 206.556998 170.14294 
L 204.739384 170.60284 
L 204.272406 169.538622 
L 202.049569 169.116793 
L 198.584324 169.997 
L 198.143449 171.125939 
L 197.910597 171.591931 
L 198.804443 171.862744 
L 199.070719 173.025694 
L 198.549786 173.049298 
L 199.090773 176.222409 
L 198.867948 176.725457 
L 200.693998 179.356179 
L 199.695424 180.707962 
L 199.61457 182.931323 
L 199.93321 183.553914 
L 199.682373 184.389451 
L 200.306442 184.971433 
L 199.621573 184.857727 
L 197.52702 185.377019 
L 197.209494 186.265094 
L 197.503464 186.662304 
L 195.913767 188.174494 
L 195.134994 187.780076 
L 195.560112 186.259257 
L 196.691904 185.912047 
L 196.695246 185.427019 
L 193.561055 184.623209 
L 193.075456 182.697819 
L 193.420834 182.490711 
L 191.757288 182.867363 
L 192.266283 184.377522 
L 191.630914 185.01788 
L 189.950496 183.376502 
L 189.101215 183.403406 
L 188.979139 183.107466 
L 188.058394 180.675221 
L 189.482245 179.662018 
L 189.513918 179.589429 
L 190.004452 178.814045 
L 189.161059 178.73841 
L 188.745013 177.812518 
L 188.470143 176.466065 
L 187.892867 176.006672 
L 187.83732 174.339405 
L 186.965438 172.953105 
L 186.270066 172.128228 
L 185.402322 171.933557 
L 185.165173 171.959953 
L 180.572593 173.542701 
L 178.780603 171.14066 
L 179.818808 170.609185 
L 180.054206 169.572379 
L 181.189181 170.066797 
L 181.310302 169.177707 
L 180.531529 168.525673 
L 180.91065 167.734045 
L 182.259059 166.933026 
L 182.935491 167.357648 
L 183.315249 166.879981 
L 182.722216 166.272617 
L 182.948861 165.946474 
L 184.317961 165.793427 
L 183.328777 163.303822 
L 181.92498 162.519301 
L 182.263993 159.577917 
L 183.039901 158.692634 
L 184.251591 159.263195 
L 184.790349 157.616994 
L 184.129833 156.147952 
L 184.379556 155.423076 
L 185.03291 154.156572 
L 184.375258 152.820272 
L 187.023532 150.566454 
L 188.035794 150.951228 
L 189.983761 148.23421 
L 190.95289 146.955017 
L 190.3632 145.43166 
L 191.116825 144.863129 
L 192.828598 145.040033 
L 194.445351 142.951699 
L 193.869031 140.500926 
L 191.884139 141.175041 
L 191.232535 140.405748 
L 193.255944 138.256246 
L 197.330774 137.562842 
L 197.467812 136.580096 
L 196.548977 135.216892 
L 197.82656 134.586433 
L 198.675045 134.470696 
L 199.763226 134.900647 
L 199.522257 135.649889 
L 199.774368 136.152176 
L 200.767212 136.213343 
L 204.238664 132.448352 
L 203.659001 131.84708 
L 205.304085 130.941238 
L 206.225148 130.93667 
L 206.573551 131.557231 
L 208.257152 131.283372 
L 209.201452 132.676525 
" style="fill:#1f77b4;"/>
    <path clip-path="url(#p96ced2d261)" d="M 267.041539 66.394752 
L 267.444215 66.709474 
L 267.376095 66.788916 
L 267.321503 66.852368 
L 266.992518 67.23638 
L 266.99204 67.236887 
L 268.461252 67.090186 
L 268.465868 67.089679 
L 268.488946 67.127496 
L 268.531123 67.196024 
L 269.739789 69.16583 
L 269.74727 69.178013 
L 269.543862 68.301105 
L 270.194352 68.061257 
L 272.762886 67.113537 
L 273.201374 66.951861 
L 273.205034 66.950592 
L 273.378042 67.159476 
L 273.875578 67.760748 
L 273.918074 67.812017 
L 274.457151 68.463289 
L 274.525749 68.546284 
L 274.589095 68.62268 
L 274.750802 68.818113 
L 274.615675 69.33309 
L 274.610423 69.353141 
L 274.441872 69.995529 
L 274.414655 70.099591 
L 273.779127 70.509491 
L 273.897224 70.631319 
L 274.043174 70.782081 
L 274.670426 71.429292 
L 275.551062 72.337926 
L 275.751605 72.54478 
L 276.508254 73.325748 
L 276.174335 73.584632 
L 275.566023 74.056208 
L 275.107004 74.412047 
L 274.812398 74.969156 
L 274.995592 75.317889 
L 275.858879 75.81383 
L 278.823564 77.516883 
L 278.832477 77.52196 
L 279.508114 77.910032 
L 279.509069 77.910794 
L 281.272091 77.630082 
L 281.960938 77.520437 
L 281.965395 77.519675 
L 281.988314 77.576021 
L 282.149862 77.973484 
L 282.090017 78.034145 
L 282.084129 78.039982 
L 281.488231 78.643031 
L 281.292941 78.840747 
L 282.129648 78.975773 
L 282.132195 78.976027 
L 282.918608 81.000148 
L 282.741144 82.881882 
L 283.790967 85.139761 
L 284.433976 88.320486 
L 282.91256 88.759574 
L 282.108003 90.094352 
L 279.447951 90.038514 
L 281.414381 87.608554 
L 281.719969 85.972506 
L 276.968388 85.775297 
L 274.666288 82.836958 
L 274.344465 83.655744 
L 275.122124 84.02935 
L 273.259467 84.528083 
L 270.728177 86.548904 
L 270.290485 88.563127 
L 269.64859 89.282419 
L 268.446768 90.090037 
L 266.697752 89.557801 
L 265.800086 90.788517 
L 264.385307 90.436993 
L 261.714114 92.499439 
L 261.034817 92.262636 
L 261.630555 91.850705 
L 261.388949 91.600958 
L 258.192208 91.885984 
L 256.465793 90.208566 
L 253.129467 90.343592 
L 251.322039 88.615665 
L 251.216198 88.532162 
L 247.262647 87.313628 
L 246.762724 87.270989 
L 246.954513 87.820484 
L 246.33681 89.08318 
L 243.318488 90.883695 
L 241.728951 91.178113 
L 241.273274 90.490293 
L 238.93027 91.385221 
L 239.187951 92.47152 
L 238.634072 93.506296 
L 234.355198 93.591068 
L 232.861157 92.711369 
L 233.225953 92.112635 
L 231.558427 91.248418 
L 229.93483 88.224293 
L 228.826594 87.855509 
L 227.484393 88.926326 
L 225.400662 87.310837 
L 223.680613 87.450177 
L 224.314868 85.112603 
L 226.242462 84.418184 
L 227.7408 82.340002 
L 228.711044 82.154722 
L 229.360578 80.249891 
L 228.799378 78.941509 
L 226.48741 77.664092 
L 226.353079 76.099364 
L 226.113065 75.53591 
L 226.478497 74.517885 
L 229.622556 73.619404 
L 228.456227 73.221179 
L 228.592469 72.402139 
L 233.01236 70.932082 
L 233.016179 70.930813 
L 233.187436 71.190966 
L 233.467559 71.616603 
L 233.980056 72.39554 
L 234.394511 73.025492 
L 236.942991 73.521688 
L 237.195738 73.570926 
L 237.200194 73.571688 
L 237.710145 72.294525 
L 237.811053 72.041732 
L 238.049953 71.443505 
L 238.209591 71.043504 
L 239.067148 70.593248 
L 239.452317 70.008981 
L 239.738965 69.574208 
L 240.097077 69.030804 
L 240.091029 69.032835 
L 239.255754 69.294257 
L 238.644736 69.485629 
L 238.477936 69.537913 
L 238.480801 69.535629 
L 238.617201 69.419638 
L 239.352205 68.79527 
L 240.949541 67.438411 
L 241.262133 67.403132 
L 246.017693 66.865312 
L 246.483715 66.780286 
L 247.418147 66.609473 
L 247.422922 66.608712 
L 247.437565 67.699326 
L 247.447433 68.431817 
L 247.718484 68.56202 
L 248.313585 68.847808 
L 248.404625 68.891717 
L 248.450782 68.913799 
L 248.327591 68.847808 
L 247.666438 68.494 
L 247.586062 67.450848 
L 247.622191 67.399325 
L 248.036168 66.810743 
L 249.242128 65.095507 
L 250.586399 64.327737 
L 252.501579 61.741685 
L 252.504762 61.73737 
L 253.615862 60.237109 
L 254.300094 59.313247 
L 254.329539 59.273399 
L 254.331767 59.270607 
L 254.332244 59.269846 
L 254.439996 59.289389 
L 259.046105 60.126195 
L 260.79528 60.444217 
L 260.789709 60.443963 
L 257.535193 60.350562 
L 257.482988 60.349293 
L 257.131084 60.33914 
L 257.130607 60.33914 
L 256.994683 60.383303 
L 256.279097 60.615537 
L 255.838063 60.758685 
L 252.983517 61.684578 
L 252.65883 62.196255 
L 252.407515 62.591942 
L 252.281619 62.79042 
L 251.875123 63.431032 
L 251.740473 63.642962 
L 251.822122 64.526977 
L 253.350701 65.010735 
L 253.358022 65.013019 
L 253.160185 64.837892 
L 252.532138 64.282559 
L 253.200771 63.713267 
L 253.649286 63.331032 
L 254.21924 62.845497 
L 254.567006 62.549303 
L 255.211925 62.000061 
L 256.492691 61.528993 
L 256.986885 61.34752 
L 257.155436 61.285337 
L 257.419165 61.188383 
L 257.423621 61.18686 
L 257.512115 61.888132 
L 258.917662 62.215291 
L 259.572767 62.367576 
L 259.576587 62.368591 
L 260.105637 61.889401 
L 261.615753 60.522136 
L 261.919432 60.247262 
L 261.785896 60.227972 
L 261.718093 60.218327 
L 261.689126 60.214013 
L 261.512935 60.188886 
L 261.617026 60.165535 
L 261.804518 60.123403 
L 262.839539 59.891422 
L 262.848771 59.889392 
L 262.429223 60.082032 
L 262.242687 60.167566 
L 262.234729 60.171119 
L 262.383067 60.581527 
L 262.772692 61.659705 
L 263.602874 63.957685 
L 263.69646 64.216315 
L 264.351724 64.476469 
L 264.49099 64.531799 
L 264.720659 64.622916 
L 265.23809 64.828247 
L 266.593184 65.36632 
L 267.041539 66.394752 
" style="fill:#1f77b4;"/>
    <path clip-path="url(#p96ced2d261)" d="M 268.182402 54.775155 
L 268.06526 55.773383 
L 268.69872 56.621611 
L 269.885262 56.738362 
L 272.770367 57.022374 
L 272.581921 58.110196 
L 271.027876 59.449542 
L 271.558199 60.893204 
L 271.958011 61.174931 
L 273.542614 62.292195 
L 273.513647 63.249052 
L 273.479587 64.366824 
L 273.112085 64.18662 
L 273.062745 64.162254 
L 272.876209 64.070883 
L 272.571575 63.92139 
L 272.230176 63.753877 
L 272.727075 63.471134 
L 272.819866 63.418342 
L 273.105241 63.255905 
L 273.027093 63.030523 
L 272.848515 62.5158 
L 272.819866 62.433566 
L 272.309119 62.458439 
L 271.481802 62.499049 
L 270.971533 62.523922 
L 270.028507 62.569861 
L 269.565667 62.934076 
L 269.38502 63.076462 
L 269.055398 63.335854 
L 268.58683 63.704638 
L 267.569952 64.504895 
L 267.738344 64.611495 
L 267.869174 64.694236 
L 268.063509 64.817333 
L 268.724344 65.235609 
L 268.232379 65.658961 
L 267.40538 65.342209 
L 267.032467 65.199315 
L 264.640123 64.283067 
L 264.585531 64.262255 
L 264.293631 64.150325 
L 264.165029 64.101086 
L 263.983586 63.52418 
L 263.9126 63.298545 
L 263.78177 62.882045 
L 263.8709 62.44981 
L 263.902414 62.297525 
L 263.984859 61.897777 
L 264.533645 61.818081 
L 266.119681 61.587369 
L 265.766185 61.059956 
L 265.742629 61.02493 
L 265.316874 60.389902 
L 264.334376 60.546755 
L 265.935213 59.358171 
L 266.257355 59.119084 
L 265.610207 58.571619 
L 265.393431 58.38837 
L 264.252726 57.423645 
L 265.827143 57.08075 
L 266.452645 54.917796 
L 265.627238 55.799272 
L 265.478582 55.957902 
L 264.848306 56.631001 
L 264.507224 56.995216 
L 264.694875 56.707144 
L 265.494975 55.479473 
L 266.207219 54.386575 
L 268.944145 54.109924 
L 268.182402 54.775155 
M 267.586505 55.863993 
L 265.83542 57.078973 
L 266.014953 57.039633 
L 266.189234 57.001815 
L 266.400599 56.955622 
L 267.443101 56.728464 
L 267.853736 56.63887 
L 267.863763 57.124659 
L 267.871243 57.478467 
L 267.883499 58.069841 
L 269.528583 60.472897 
L 270.82988 60.137616 
L 270.689819 59.282283 
L 270.057474 59.131267 
L 269.955134 59.106647 
L 269.717348 57.291664 
L 268.770183 56.953084 
L 268.267713 56.773642 
L 268.064942 56.29369 
L 267.816174 55.704601 
L 267.586505 55.863993 
" style="fill:#1f77b4;"/>
    <path clip-path="url(#p96ced2d261)" d="M 281.475817 73.117117 
L 281.475498 73.119401 
L 281.265406 74.695043 
L 281.26095 74.695297 
L 277.938312 74.925247 
L 277.143464 74.980324 
L 276.610117 75.01738 
L 275.432487 75.098852 
L 275.107004 75.121441 
L 275.107481 75.120933 
L 275.936868 74.413316 
L 276.889921 73.600622 
L 276.22845 72.227265 
L 276.457959 71.531323 
L 276.458755 71.528785 
L 277.390004 72.109752 
L 277.697662 72.301631 
L 278.043836 72.517622 
L 278.509062 72.807979 
L 278.513519 72.810771 
L 278.525933 72.646049 
L 278.55506 72.256453 
L 278.628751 71.271677 
L 278.135512 70.917869 
L 277.923351 70.765584 
L 276.546612 69.778016 
L 276.44841 69.707457 
L 276.448728 69.711264 
L 276.473875 69.985377 
L 276.488837 70.14756 
L 276.525125 70.542486 
L 276.544224 70.75137 
L 276.33652 70.885381 
L 276.103509 71.035889 
L 275.675367 71.31254 
L 275.676481 71.308733 
L 275.923339 70.413298 
L 275.958991 70.284363 
L 275.953898 70.285378 
L 274.859191 70.51406 
L 274.858554 70.513298 
L 274.54262 70.040707 
L 274.665333 69.606441 
L 274.735523 69.358471 
L 274.898026 68.783595 
L 274.66979 68.488162 
L 273.906933 67.500087 
L 274.885134 67.007952 
L 274.888954 67.005922 
L 275.570957 68.441969 
L 277.429635 69.561263 
L 280.119768 71.925234 
L 281.475817 73.117117 
" style="fill:#1f77b4;"/>
    <path clip-path="url(#p96ced2d261)" d="M 170.864272 184.285897 
L 170.888464 185.919153 
L 171.314696 186.174738 
L 170.481809 187.259261 
L 171.11861 187.849365 
L 171.219518 188.095559 
L 172.76274 188.76739 
L 172.861101 188.877289 
L 172.740298 190.181102 
L 171.072931 192.152684 
L 171.560122 193.40066 
L 172.330778 194.112338 
L 171.127842 195.293815 
L 168.988245 195.148637 
L 168.070207 194.250917 
L 167.371969 195.36945 
L 167.018155 193.352182 
L 165.26882 192.541519 
L 163.876961 192.805987 
L 164.250192 193.67858 
L 163.828576 194.369953 
L 162.297928 194.058023 
L 161.86517 193.430101 
L 162.060301 192.65624 
L 161.623405 192.750149 
L 161.056794 191.581362 
L 161.210224 191.095319 
L 159.548587 189.386682 
L 159.118695 187.74835 
L 159.410595 187.57043 
L 157.375567 186.122962 
L 156.388453 186.293774 
L 156.227701 184.757473 
L 156.594407 184.222953 
L 160.195735 184.809504 
L 164.733882 182.64122 
L 166.906902 181.980811 
L 167.401891 182.208223 
L 170.033135 183.874474 
L 170.738216 183.385893 
L 170.864272 184.285897 
" style="fill:#1f77b4;"/>
    <path clip-path="url(#p96ced2d261)" d="M 262.770145 131.01002 
L 263.331505 132.013832 
L 264.424302 132.215102 
L 265.267853 134.140238 
L 265.302709 137.176038 
L 268.518391 136.2971 
L 270.51713 137.77731 
L 272.959927 137.955991 
L 275.252795 137.885432 
L 277.81544 137.737716 
L 279.589763 134.205974 
L 280.473423 133.716632 
L 283.341975 134.323995 
L 285.000747 133.690489 
L 286.940438 132.697591 
L 288.627222 133.45191 
L 289.192879 132.327793 
L 289.490509 132.682617 
L 289.194152 133.167898 
L 289.584573 134.099628 
L 292.967055 135.474761 
L 293.378644 136.233648 
L 293.12542 137.404973 
L 293.379122 138.211322 
L 294.320875 139.984427 
L 294.383266 141.262097 
L 292.507717 148.074565 
L 290.978661 150.734222 
L 290.071764 152.034228 
L 287.722871 151.057827 
L 288.22757 149.240053 
L 286.851308 149.517211 
L 287.410598 147.775833 
L 285.6923 146.343846 
L 284.587248 146.951971 
L 282.933251 146.060343 
L 281.988791 147.753498 
L 284.188391 149.06061 
L 284.054855 149.979142 
L 276.241978 152.724079 
L 276.258372 153.922054 
L 275.579234 154.369264 
L 272.337927 154.29236 
L 270.317701 154.950992 
L 270.622176 155.635259 
L 269.945425 156.747193 
L 269.322629 157.554557 
L 267.969446 156.898717 
L 266.018136 157.720294 
L 265.035478 160.05863 
L 262.904318 160.112437 
L 261.132541 162.567778 
L 259.095126 161.160411 
L 257.304251 162.478438 
L 255.333365 162.497473 
L 252.376638 164.678448 
L 251.311376 166.66932 
L 251.375676 168.463744 
L 250.67712 168.32821 
L 250.41562 167.839883 
L 250.719298 167.213485 
L 248.977603 164.648752 
L 247.647816 164.757636 
L 246.57189 164.461188 
L 245.176847 162.26397 
L 244.76669 162.057877 
L 245.482277 160.523353 
L 243.996035 159.128422 
L 245.152814 157.822325 
L 246.207413 156.701 
L 246.599107 157.738315 
L 246.321053 158.417252 
L 246.870635 158.84568 
L 248.372475 156.94161 
L 249.754307 156.915468 
L 251.117836 155.65861 
L 249.654513 154.092866 
L 250.034112 152.059862 
L 256.433006 149.385738 
L 255.867826 147.936239 
L 254.438405 147.476593 
L 254.024109 145.82227 
L 251.717235 145.054247 
L 250.571438 145.134958 
L 249.164458 143.846881 
L 249.43328 142.791292 
L 248.761941 140.456002 
L 248.391892 139.327571 
L 249.12228 139.009041 
L 248.406694 135.694306 
L 249.208227 133.963333 
L 249.912831 133.060791 
L 255.27734 131.5585 
L 259.765192 130.347581 
L 261.037363 131.255453 
L 261.7017 130.466617 
L 262.770145 131.01002 
" style="fill:#1f77b4;"/>
    <path clip-path="url(#p96ced2d261)" d="M 248.060201 99.473836 
L 248.010862 100.397698 
L 249.765608 100.254297 
L 250.008168 101.969787 
L 249.434076 102.432987 
L 249.24563 103.565225 
L 249.851395 105.018531 
L 249.716109 106.084272 
L 248.321702 108.468801 
L 248.772445 109.21652 
L 250.151731 108.923372 
L 251.306601 109.921599 
L 251.090142 110.542414 
L 250.711658 111.319322 
L 250.946102 113.319077 
L 249.932726 115.773403 
L 250.773413 116.292441 
L 249.49217 117.75133 
L 250.446178 119.427734 
L 251.068496 119.723421 
L 252.028235 120.922665 
L 252.242784 120.962005 
L 254.626851 122.451352 
L 256.490781 121.73942 
L 258.293752 122.593992 
L 259.47743 122.886887 
L 259.61399 123.717347 
L 261.330378 123.719886 
L 261.522962 124.583595 
L 262.659688 125.364309 
L 264.359842 125.631062 
L 263.922468 125.699844 
L 264.552426 127.092744 
L 264.532372 129.920675 
L 262.770145 131.01002 
L 261.7017 130.466617 
L 261.037363 131.255453 
L 259.765192 130.347581 
L 255.27734 131.5585 
L 249.912831 133.060791 
L 249.208227 133.963333 
L 248.406694 135.694306 
L 249.12228 139.009041 
L 248.391892 139.327571 
L 248.761941 140.456002 
L 249.43328 142.791292 
L 249.164458 143.846881 
L 250.571438 145.134958 
L 250.025199 146.487502 
L 250.705133 146.900956 
L 249.609789 148.897158 
L 249.192948 148.545633 
L 248.642093 148.493856 
L 248.190395 148.33751 
L 246.376441 148.232434 
L 244.310059 146.062119 
L 241.261973 145.549934 
L 241.218363 145.228105 
L 239.70204 144.558559 
L 237.838906 144.772519 
L 237.303967 143.726068 
L 237.849251 143.245863 
L 237.583612 142.559058 
L 236.355688 142.282914 
L 235.998372 141.621998 
L 236.259396 141.207782 
L 237.669559 139.959807 
L 236.951744 138.824015 
L 235.239017 137.033144 
L 232.559866 137.254719 
L 229.77742 136.614107 
L 229.093666 133.91511 
L 228.248523 132.71485 
L 229.131705 132.169924 
L 228.789828 131.804694 
L 226.710554 131.157229 
L 225.372808 131.149361 
L 224.192632 128.211784 
L 223.465268 127.651376 
L 223.39285 126.052891 
L 224.526711 124.396538 
L 224.07167 122.906938 
L 223.142331 121.964548 
L 226.96537 120.849568 
L 229.55937 120.630278 
L 230.680497 117.702599 
L 230.343077 117.00285 
L 231.498424 116.265029 
L 230.699119 114.189639 
L 231.040519 113.176183 
L 230.703575 112.2909 
L 229.071383 110.368556 
L 229.083957 110.093428 
L 230.265565 109.459922 
L 229.129318 107.654076 
L 229.759275 106.226659 
L 228.874979 106.574376 
L 226.890087 103.937562 
L 226.294985 101.869025 
L 226.412446 100.69237 
L 227.604081 100.438308 
L 229.16497 100.409373 
L 230.747345 98.885001 
L 234.827587 99.861909 
L 238.163912 98.183729 
L 237.961937 97.710884 
L 238.282646 96.498188 
L 239.640127 95.775088 
L 240.302076 95.704276 
L 240.130341 96.417985 
L 243.627419 97.968246 
L 243.23079 98.761396 
L 244.368471 99.374851 
L 248.060201 99.473836 
" style="fill:#1f77b4;"/>
    <path clip-path="url(#p96ced2d261)" d="M 192.499135 48.167004 
L 200.093803 49.133505 
L 202.118008 49.733762 
L 202.274145 50.755086 
L 204.976374 50.191378 
L 204.98083 50.190363 
L 205.025077 50.412191 
L 205.161955 50.703056 
L 205.162592 50.704325 
L 205.608878 50.575644 
L 206.123604 50.426912 
L 206.350726 50.260668 
L 206.619866 50.063967 
L 206.638011 50.050515 
L 207.154487 49.672594 
L 207.325744 49.547213 
L 207.595839 49.34975 
L 207.599818 49.346704 
L 207.680354 49.719803 
L 207.737333 49.983763 
L 208.164043 50.197216 
L 208.583113 50.406861 
L 208.71442 50.472598 
L 211.394844 51.812959 
L 212.195104 52.213215 
L 212.198924 52.215245 
L 212.761079 51.037321 
L 212.762353 51.034783 
L 213.536669 51.555598 
L 213.882684 52.364231 
L 214.313373 53.371342 
L 214.460915 53.716267 
L 213.804696 54.19698 
L 213.804377 54.197234 
L 213.808356 54.19698 
L 213.812972 54.196726 
L 214.705863 55.149269 
L 214.684536 55.79318 
L 214.633604 57.340142 
L 214.143708 58.114765 
L 211.549389 59.286851 
L 212.047881 59.921372 
L 212.048676 59.922387 
L 212.941408 59.722894 
L 216.210408 58.992941 
L 216.21391 58.991926 
L 217.375464 59.758173 
L 217.23222 59.924671 
L 216.891934 60.320358 
L 217.214235 60.872645 
L 217.011623 61.464018 
L 216.649851 62.519353 
L 216.390419 63.275702 
L 216.386758 63.286362 
L 216.981701 62.530775 
L 217.209778 62.065544 
L 217.528099 61.415795 
L 217.635533 61.196758 
L 217.651767 61.163763 
L 217.824934 60.810208 
L 218.197051 60.730005 
L 218.851679 60.588634 
L 219.912803 60.359699 
L 219.916305 60.358937 
L 225.021382 63.252351 
L 225.567621 63.561998 
L 225.569849 63.563267 
L 228.777891 61.837624 
L 229.27304 61.571379 
L 229.273676 61.570872 
L 230.464516 61.676456 
L 231.288968 61.749553 
L 232.125039 61.823665 
L 231.269073 62.678491 
L 231.376666 63.779257 
L 231.455928 64.59119 
L 231.562565 65.681804 
L 231.618431 66.254142 
L 230.995317 66.679778 
L 230.017116 67.348309 
L 229.334476 67.814555 
L 227.563495 69.024713 
L 226.232117 69.934362 
L 226.73968 71.37117 
L 227.181192 71.444013 
L 227.593418 71.512034 
L 228.1656 71.627009 
L 228.281947 71.838431 
L 228.591832 72.40087 
L 228.592469 72.402139 
L 228.456227 73.221179 
L 229.622556 73.619404 
L 226.478497 74.517885 
L 226.113065 75.53591 
L 226.353079 76.099364 
L 226.48741 77.664092 
L 228.799378 78.941509 
L 229.360578 80.249891 
L 228.711044 82.154722 
L 227.7408 82.340002 
L 226.242462 84.418184 
L 224.314868 85.112603 
L 223.680613 87.450177 
L 222.150602 87.182917 
L 221.677258 86.894083 
L 219.116841 85.69154 
L 219.397759 85.274787 
L 217.976773 84.089248 
L 216.615472 82.853964 
L 216.630274 82.046599 
L 217.41605 81.862588 
L 217.739305 80.602684 
L 216.442306 79.42476 
L 217.254184 78.357243 
L 215.368608 78.676026 
L 215.312265 79.442019 
L 213.340424 80.115119 
L 211.423812 81.851167 
L 210.553681 80.761568 
L 209.914014 82.53518 
L 207.057717 81.051671 
L 206.027152 78.726026 
L 202.905057 74.774485 
L 201.47293 74.349356 
L 198.650534 74.364077 
L 198.142175 73.98971 
L 196.851542 73.039452 
L 195.629188 70.698832 
L 196.960249 70.222434 
L 198.064505 69.827254 
L 197.901525 69.507202 
L 197.862689 69.431314 
L 197.104448 67.943743 
L 197.099673 67.943743 
L 196.621873 67.944759 
L 195.717841 67.946789 
L 195.483875 67.453893 
L 195.251659 66.965059 
L 195.473847 66.025714 
L 195.644308 65.304645 
L 195.753493 64.843222 
L 195.823523 64.54652 
L 193.462375 64.212 
L 192.895286 64.131543 
L 191.961172 62.66377 
L 192.782123 62.44981 
L 192.783714 62.449302 
L 193.386456 62.291941 
L 192.867592 61.807421 
L 192.705567 61.656151 
L 193.085324 61.141936 
L 193.698092 61.093458 
L 195.85838 60.921884 
L 196.339522 60.883559 
L 196.532902 60.86833 
L 198.460178 58.696493 
L 198.183716 58.246237 
L 198.025988 57.989383 
L 198.023282 57.992683 
L 197.10222 59.143957 
L 197.064658 59.190912 
L 196.959453 59.322384 
L 196.687129 59.662995 
L 196.682991 59.66198 
L 195.215371 59.353095 
L 195.212983 58.657914 
L 195.457772 58.477964 
L 196.247686 57.897759 
L 196.332201 57.448772 
L 196.580332 56.130999 
L 195.875091 55.447494 
L 195.846602 55.420082 
L 194.849142 54.453073 
L 194.379777 53.998248 
L 193.824784 52.886822 
L 193.622173 52.481236 
L 193.013065 51.261434 
L 192.014014 49.260917 
L 191.844348 48.921068 
L 191.84021 48.922337 
L 188.972931 49.802544 
L 188.971499 49.801529 
L 188.292997 49.312948 
L 187.955577 49.0698 
L 187.798008 48.956601 
L 187.796257 48.958632 
L 187.35204 49.482492 
L 187.150224 49.72031 
L 187.138128 50.779706 
L 187.136695 50.918793 
L 187.129215 51.569303 
L 187.124917 51.956107 
L 187.118392 52.520069 
L 187.113776 52.515501 
L 186.811212 52.214484 
L 187.119028 48.192892 
L 188.730052 45.002268 
L 188.866771 44.731709 
L 189.011289 44.445159 
L 189.012244 44.443636 
L 189.76587 44.765211 
L 189.321175 45.260645 
L 188.905925 45.723591 
L 187.993139 46.741109 
L 188.139726 47.576899 
L 188.308913 48.543147 
L 190.026097 49.025129 
L 190.028644 49.025891 
L 190.510423 48.858377 
L 192.499135 48.167004 
M 209.038949 58.715529 
L 209.506563 58.327202 
L 209.689757 58.175171 
L 209.993594 57.922886 
L 212.130167 56.148766 
L 213.04725 55.387087 
L 213.131605 55.317036 
L 213.338037 55.145462 
L 213.37146 54.514241 
L 213.366526 54.517794 
L 213.216915 54.627185 
L 213.188585 54.647998 
L 210.508161 56.608413 
L 209.804034 57.79319 
L 209.615269 58.110704 
L 208.409469 58.232532 
L 208.362516 58.237354 
L 207.693564 58.304867 
L 207.42315 58.332024 
L 206.984026 58.376441 
L 207.737651 58.500807 
L 209.035129 58.714767 
L 209.038949 58.715529 
" style="fill:#1f77b4;"/>
    <path clip-path="url(#p96ced2d261)" d="M 232.955539 61.095996 
L 232.051189 61.101073 
L 231.639758 60.000306 
L 230.740182 59.944215 
L 230.193625 59.910204 
L 231.18058 57.709179 
L 231.731912 57.878215 
L 233.153217 58.314258 
L 233.719669 58.488117 
L 234.04197 58.985835 
L 234.510539 59.709696 
L 234.697871 60.141931 
L 235.105799 61.08356 
L 232.955539 61.095996 
" style="fill:#1f77b4;"/>
    <path clip-path="url(#p96ced2d261)" d="M 191.538283 53.489363 
L 189.901156 53.990127 
L 189.482723 53.71779 
L 188.663523 53.184793 
L 191.000956 52.133265 
L 191.74726 52.499511 
L 191.878886 53.068803 
L 191.538283 53.489363 
" style="fill:#1f77b4;"/>
    <path clip-path="url(#p96ced2d261)" d="M 193.039008 58.754615 
L 192.126699 58.76959 
L 191.744396 57.856134 
L 192.108078 57.733291 
L 192.53622 57.58862 
L 193.657188 57.210192 
L 193.039008 58.754615 
" style="fill:#1f77b4;"/>
    <path clip-path="url(#p96ced2d261)" d="M 188.762203 55.604093 
L 188.193999 55.845973 
L 187.050589 54.306118 
L 188.116488 53.266773 
L 187.801668 53.876674 
L 188.457729 55.056375 
L 188.473645 55.085055 
L 188.625165 55.357645 
L 188.677529 55.451554 
L 188.762203 55.604093 
" style="fill:#1f77b4;"/>
    <path clip-path="url(#p96ced2d261)" d="M 229.77742 136.614107 
L 232.559866 137.254719 
L 235.239017 137.033144 
L 236.951744 138.824015 
L 237.669559 139.959807 
L 236.259396 141.207782 
L 235.998372 141.621998 
L 236.355688 142.282914 
L 237.583612 142.559058 
L 237.849251 143.245863 
L 237.303967 143.726068 
L 237.838906 144.772519 
L 239.70204 144.558559 
L 241.218363 145.228105 
L 241.261973 145.549934 
L 244.310059 146.062119 
L 246.376441 148.232434 
L 248.190395 148.33751 
L 248.642093 148.493856 
L 249.192948 148.545633 
L 249.609789 148.897158 
L 250.705133 146.900956 
L 250.025199 146.487502 
L 250.571438 145.134958 
L 251.717235 145.054247 
L 254.024109 145.82227 
L 254.438405 147.476593 
L 255.867826 147.936239 
L 256.433006 149.385738 
L 250.034112 152.059862 
L 249.654513 154.092866 
L 251.117836 155.65861 
L 249.754307 156.915468 
L 248.372475 156.94161 
L 246.870635 158.84568 
L 246.321053 158.417252 
L 246.599107 157.738315 
L 246.207413 156.701 
L 245.152814 157.822325 
L 243.996035 159.128422 
L 245.482277 160.523353 
L 244.76669 162.057877 
L 243.232541 162.939353 
L 242.784663 162.215746 
L 239.727824 162.708388 
L 238.399788 163.330218 
L 237.790521 161.874628 
L 236.820596 161.576403 
L 236.791629 160.305078 
L 237.144806 160.122082 
L 236.872482 159.731471 
L 235.597128 159.613958 
L 234.35854 160.661424 
L 234.027327 160.880207 
L 234.649963 163.684535 
L 234.260497 165.851042 
L 233.148919 165.946474 
L 232.3789 165.489619 
L 232.271785 164.858652 
L 232.65966 164.443929 
L 231.961104 163.514483 
L 229.899496 164.014231 
L 229.261899 163.020572 
L 228.330331 162.865749 
L 225.594042 163.601285 
L 225.596111 164.677686 
L 227.762128 166.160434 
L 225.815753 166.991656 
L 225.616006 167.630999 
L 223.920468 167.042925 
L 223.616789 165.931499 
L 223.768151 164.360172 
L 222.046988 163.817784 
L 221.380423 162.629961 
L 220.44997 162.772601 
L 219.471291 160.284265 
L 216.235238 158.628166 
L 214.867729 159.721065 
L 214.802951 157.324861 
L 215.444209 156.646178 
L 214.241591 155.656833 
L 213.399791 155.973078 
L 213.584576 156.852778 
L 212.276754 156.718259 
L 212.325934 155.76927 
L 213.276601 154.000988 
L 213.034836 153.352508 
L 213.449767 151.982451 
L 214.576625 151.722044 
L 215.100741 150.500211 
L 213.407271 149.289291 
L 215.226318 148.833705 
L 214.55291 147.627609 
L 217.112053 147.486999 
L 217.427669 147.14385 
L 217.634737 146.778112 
L 216.496579 145.981916 
L 216.092948 143.906272 
L 217.152799 143.866932 
L 217.552292 143.791804 
L 217.96595 142.759059 
L 217.503429 142.609819 
L 215.277727 141.667175 
L 213.394379 139.403206 
L 213.069214 137.92325 
L 214.952562 136.363344 
L 216.603535 136.549639 
L 220.025011 133.339726 
L 220.088357 132.55089 
L 221.985552 132.860283 
L 223.084556 133.321452 
L 224.989391 131.246062 
L 225.372808 131.149361 
L 226.710554 131.157229 
L 228.789828 131.804694 
L 229.131705 132.169924 
L 228.248523 132.71485 
L 229.093666 133.91511 
L 229.77742 136.614107 
" style="fill:#1f77b4;"/>
    <path clip-path="url(#p96ced2d261)" d="M 183.009342 155.129419 
L 184.379556 155.423076 
L 184.129833 156.147952 
L 184.790349 157.616994 
L 184.251591 159.263195 
L 183.039901 158.692634 
L 182.263993 159.577917 
L 181.92498 162.519301 
L 183.328777 163.303822 
L 184.317961 165.793427 
L 182.948861 165.946474 
L 182.722216 166.272617 
L 183.315249 166.879981 
L 182.935491 167.357648 
L 182.259059 166.933026 
L 180.91065 167.734045 
L 180.531529 168.525673 
L 181.310302 169.177707 
L 181.189181 170.066797 
L 180.054206 169.572379 
L 179.818808 170.609185 
L 178.780603 171.14066 
L 180.572593 173.542701 
L 185.165173 171.959953 
L 185.402322 171.933557 
L 186.270066 172.128228 
L 186.965438 172.953105 
L 187.83732 174.339405 
L 187.892867 176.006672 
L 188.470143 176.466065 
L 188.745013 177.812518 
L 189.161059 178.73841 
L 190.004452 178.814045 
L 189.513918 179.589429 
L 189.482245 179.662018 
L 188.058394 180.675221 
L 188.979139 183.107466 
L 189.101215 183.403406 
L 189.105353 183.63691 
L 189.111242 184.458487 
L 189.449458 186.555705 
L 189.933625 187.027027 
L 190.29301 187.769923 
L 189.784651 188.381601 
L 190.342031 188.336931 
L 189.872826 189.562825 
L 189.571535 190.147345 
L 190.133053 190.849125 
L 189.810276 191.02806 
L 188.952081 191.869688 
L 188.54654 192.343548 
L 188.819501 192.644311 
L 187.788617 196.176053 
L 186.791953 198.465657 
L 186.536182 198.694592 
L 186.080187 199.058807 
L 183.466451 198.227585 
L 180.955533 197.064128 
L 176.578616 196.841031 
L 174.876074 195.746102 
L 174.320763 193.952946 
L 172.330778 194.112338 
L 171.560122 193.40066 
L 171.072931 192.152684 
L 172.740298 190.181102 
L 172.861101 188.877289 
L 172.76274 188.76739 
L 171.219518 188.095559 
L 171.11861 187.849365 
L 170.481809 187.259261 
L 171.314696 186.174738 
L 170.888464 185.919153 
L 170.864272 184.285897 
L 170.738216 183.385893 
L 170.033135 183.874474 
L 167.401891 182.208223 
L 166.906902 181.980811 
L 164.733882 182.64122 
L 160.195735 184.809504 
L 156.594407 184.222953 
L 156.235659 183.685895 
L 157.274819 182.416092 
L 157.558284 181.589438 
L 157.327023 181.365326 
L 158.615269 180.122934 
L 158.837776 177.982062 
L 158.105 177.365815 
L 157.375726 177.630029 
L 154.293899 175.388141 
L 154.109273 174.100064 
L 153.375224 173.996257 
L 152.40514 171.390153 
L 152.736512 169.531262 
L 153.503189 168.158413 
L 153.359149 166.843178 
L 155.875638 164.798499 
L 156.99199 164.623625 
L 157.314609 164.631239 
L 156.673351 163.07844 
L 157.24426 163.466513 
L 160.144326 162.976156 
L 161.674655 164.299004 
L 163.289658 163.647225 
L 162.41125 161.765236 
L 162.627868 160.784014 
L 164.89352 160.923608 
L 165.314022 158.651263 
L 167.354939 157.442628 
L 168.81476 157.593644 
L 169.568386 156.516735 
L 169.81779 156.343638 
L 169.842142 157.007093 
L 172.175119 156.344907 
L 172.414337 154.600483 
L 173.476893 154.772565 
L 177.220033 153.049461 
L 176.982088 152.008085 
L 178.371719 150.81874 
L 178.970004 148.973808 
L 179.648028 149.253504 
L 180.014098 149.33117 
L 179.660125 150.433713 
L 181.8037 151.35656 
L 181.882007 153.186771 
L 183.019528 154.41165 
L 183.009342 155.129419 
" style="fill:#1f77b4;"/>
   </g>
   <g id="matplotlib.axis_1">
    <g id="xtick_1">
     <g id="line2d_1">
      <defs>
       <path d="M 0 0 
L 0 3.5 
" id="m7d8289f31b" style="stroke:#000000;stroke-width:0.8;"/>
      </defs>
      <g>
       <use style="stroke:#000000;stroke-width:0.8;" x="174.419602" xlink:href="#m7d8289f31b" y="252"/>
      </g>
     </g>
     <g id="text_1">
      <!-- 7.5 -->
      <g transform="translate(166.468039 266.598437)scale(0.1 -0.1)">
       <defs>
        <path d="M 8.203125 72.90625 
L 55.078125 72.90625 
L 55.078125 68.703125 
L 28.609375 0 
L 18.3125 0 
L 43.21875 64.59375 
L 8.203125 64.59375 
z
" id="DejaVuSans-55"/>
        <path d="M 10.6875 12.40625 
L 21 12.40625 
L 21 0 
L 10.6875 0 
z
" id="DejaVuSans-46"/>
        <path d="M 10.796875 72.90625 
L 49.515625 72.90625 
L 49.515625 64.59375 
L 19.828125 64.59375 
L 19.828125 46.734375 
Q 21.96875 47.46875 24.109375 47.828125 
Q 26.265625 48.1875 28.421875 48.1875 
Q 40.625 48.1875 47.75 41.5 
Q 54.890625 34.8125 54.890625 23.390625 
Q 54.890625 11.625 47.5625 5.09375 
Q 40.234375 -1.421875 26.90625 -1.421875 
Q 22.3125 -1.421875 17.546875 -0.640625 
Q 12.796875 0.140625 7.71875 1.703125 
L 7.71875 11.625 
Q 12.109375 9.234375 16.796875 8.0625 
Q 21.484375 6.890625 26.703125 6.890625 
Q 35.15625 6.890625 40.078125 11.328125 
Q 45.015625 15.765625 45.015625 23.390625 
Q 45.015625 31 40.078125 35.4375 
Q 35.15625 39.890625 26.703125 39.890625 
Q 22.75 39.890625 18.8125 39.015625 
Q 14.890625 38.140625 10.796875 36.28125 
z
" id="DejaVuSans-53"/>
       </defs>
       <use xlink:href="#DejaVuSans-55"/>
       <use x="63.623047" xlink:href="#DejaVuSans-46"/>
       <use x="95.410156" xlink:href="#DejaVuSans-53"/>
      </g>
     </g>
    </g>
    <g id="xtick_2">
     <g id="line2d_2">
      <g>
       <use style="stroke:#000000;stroke-width:0.8;" x="214.209759" xlink:href="#m7d8289f31b" y="252"/>
      </g>
     </g>
     <g id="text_2">
      <!-- 10.0 -->
      <g transform="translate(203.076947 266.598437)scale(0.1 -0.1)">
       <defs>
        <path d="M 12.40625 8.296875 
L 28.515625 8.296875 
L 28.515625 63.921875 
L 10.984375 60.40625 
L 10.984375 69.390625 
L 28.421875 72.90625 
L 38.28125 72.90625 
L 38.28125 8.296875 
L 54.390625 8.296875 
L 54.390625 0 
L 12.40625 0 
z
" id="DejaVuSans-49"/>
        <path d="M 31.78125 66.40625 
Q 24.171875 66.40625 20.328125 58.90625 
Q 16.5 51.421875 16.5 36.375 
Q 16.5 21.390625 20.328125 13.890625 
Q 24.171875 6.390625 31.78125 6.390625 
Q 39.453125 6.390625 43.28125 13.890625 
Q 47.125 21.390625 47.125 36.375 
Q 47.125 51.421875 43.28125 58.90625 
Q 39.453125 66.40625 31.78125 66.40625 
z
M 31.78125 74.21875 
Q 44.046875 74.21875 50.515625 64.515625 
Q 56.984375 54.828125 56.984375 36.375 
Q 56.984375 17.96875 50.515625 8.265625 
Q 44.046875 -1.421875 31.78125 -1.421875 
Q 19.53125 -1.421875 13.0625 8.265625 
Q 6.59375 17.96875 6.59375 36.375 
Q 6.59375 54.828125 13.0625 64.515625 
Q 19.53125 74.21875 31.78125 74.21875 
z
" id="DejaVuSans-48"/>
       </defs>
       <use xlink:href="#DejaVuSans-49"/>
       <use x="63.623047" xlink:href="#DejaVuSans-48"/>
       <use x="127.246094" xlink:href="#DejaVuSans-46"/>
       <use x="159.033203" xlink:href="#DejaVuSans-48"/>
      </g>
     </g>
    </g>
    <g id="xtick_3">
     <g id="line2d_3">
      <g>
       <use style="stroke:#000000;stroke-width:0.8;" x="253.999917" xlink:href="#m7d8289f31b" y="252"/>
      </g>
     </g>
     <g id="text_3">
      <!-- 12.5 -->
      <g transform="translate(242.867104 266.598437)scale(0.1 -0.1)">
       <defs>
        <path d="M 19.1875 8.296875 
L 53.609375 8.296875 
L 53.609375 0 
L 7.328125 0 
L 7.328125 8.296875 
Q 12.9375 14.109375 22.625 23.890625 
Q 32.328125 33.6875 34.8125 36.53125 
Q 39.546875 41.84375 41.421875 45.53125 
Q 43.3125 49.21875 43.3125 52.78125 
Q 43.3125 58.59375 39.234375 62.25 
Q 35.15625 65.921875 28.609375 65.921875 
Q 23.96875 65.921875 18.8125 64.3125 
Q 13.671875 62.703125 7.8125 59.421875 
L 7.8125 69.390625 
Q 13.765625 71.78125 18.9375 73 
Q 24.125 74.21875 28.421875 74.21875 
Q 39.75 74.21875 46.484375 68.546875 
Q 53.21875 62.890625 53.21875 53.421875 
Q 53.21875 48.921875 51.53125 44.890625 
Q 49.859375 40.875 45.40625 35.40625 
Q 44.1875 33.984375 37.640625 27.21875 
Q 31.109375 20.453125 19.1875 8.296875 
z
" id="DejaVuSans-50"/>
       </defs>
       <use xlink:href="#DejaVuSans-49"/>
       <use x="63.623047" xlink:href="#DejaVuSans-50"/>
       <use x="127.246094" xlink:href="#DejaVuSans-46"/>
       <use x="159.033203" xlink:href="#DejaVuSans-53"/>
      </g>
     </g>
    </g>
    <g id="xtick_4">
     <g id="line2d_4">
      <g>
       <use style="stroke:#000000;stroke-width:0.8;" x="293.790075" xlink:href="#m7d8289f31b" y="252"/>
      </g>
     </g>
     <g id="text_4">
      <!-- 15.0 -->
      <g transform="translate(282.657262 266.598437)scale(0.1 -0.1)">
       <use xlink:href="#DejaVuSans-49"/>
       <use x="63.623047" xlink:href="#DejaVuSans-53"/>
       <use x="127.246094" xlink:href="#DejaVuSans-46"/>
       <use x="159.033203" xlink:href="#DejaVuSans-48"/>
      </g>
     </g>
    </g>
    <g id="text_5">
     <!-- Longitude -->
     <g transform="translate(196.530469 280.276563)scale(0.1 -0.1)">
      <defs>
       <path d="M 9.8125 72.90625 
L 19.671875 72.90625 
L 19.671875 8.296875 
L 55.171875 8.296875 
L 55.171875 0 
L 9.8125 0 
z
" id="DejaVuSans-76"/>
       <path d="M 30.609375 48.390625 
Q 23.390625 48.390625 19.1875 42.75 
Q 14.984375 37.109375 14.984375 27.296875 
Q 14.984375 17.484375 19.15625 11.84375 
Q 23.34375 6.203125 30.609375 6.203125 
Q 37.796875 6.203125 41.984375 11.859375 
Q 46.1875 17.53125 46.1875 27.296875 
Q 46.1875 37.015625 41.984375 42.703125 
Q 37.796875 48.390625 30.609375 48.390625 
z
M 30.609375 56 
Q 42.328125 56 49.015625 48.375 
Q 55.71875 40.765625 55.71875 27.296875 
Q 55.71875 13.875 49.015625 6.21875 
Q 42.328125 -1.421875 30.609375 -1.421875 
Q 18.84375 -1.421875 12.171875 6.21875 
Q 5.515625 13.875 5.515625 27.296875 
Q 5.515625 40.765625 12.171875 48.375 
Q 18.84375 56 30.609375 56 
z
" id="DejaVuSans-111"/>
       <path d="M 54.890625 33.015625 
L 54.890625 0 
L 45.90625 0 
L 45.90625 32.71875 
Q 45.90625 40.484375 42.875 44.328125 
Q 39.84375 48.1875 33.796875 48.1875 
Q 26.515625 48.1875 22.3125 43.546875 
Q 18.109375 38.921875 18.109375 30.90625 
L 18.109375 0 
L 9.078125 0 
L 9.078125 54.6875 
L 18.109375 54.6875 
L 18.109375 46.1875 
Q 21.34375 51.125 25.703125 53.5625 
Q 30.078125 56 35.796875 56 
Q 45.21875 56 50.046875 50.171875 
Q 54.890625 44.34375 54.890625 33.015625 
z
" id="DejaVuSans-110"/>
       <path d="M 45.40625 27.984375 
Q 45.40625 37.75 41.375 43.109375 
Q 37.359375 48.484375 30.078125 48.484375 
Q 22.859375 48.484375 18.828125 43.109375 
Q 14.796875 37.75 14.796875 27.984375 
Q 14.796875 18.265625 18.828125 12.890625 
Q 22.859375 7.515625 30.078125 7.515625 
Q 37.359375 7.515625 41.375 12.890625 
Q 45.40625 18.265625 45.40625 27.984375 
z
M 54.390625 6.78125 
Q 54.390625 -7.171875 48.1875 -13.984375 
Q 42 -20.796875 29.203125 -20.796875 
Q 24.46875 -20.796875 20.265625 -20.09375 
Q 16.0625 -19.390625 12.109375 -17.921875 
L 12.109375 -9.1875 
Q 16.0625 -11.328125 19.921875 -12.34375 
Q 23.78125 -13.375 27.78125 -13.375 
Q 36.625 -13.375 41.015625 -8.765625 
Q 45.40625 -4.15625 45.40625 5.171875 
L 45.40625 9.625 
Q 42.625 4.78125 38.28125 2.390625 
Q 33.9375 0 27.875 0 
Q 17.828125 0 11.671875 7.65625 
Q 5.515625 15.328125 5.515625 27.984375 
Q 5.515625 40.671875 11.671875 48.328125 
Q 17.828125 56 27.875 56 
Q 33.9375 56 38.28125 53.609375 
Q 42.625 51.21875 45.40625 46.390625 
L 45.40625 54.6875 
L 54.390625 54.6875 
z
" id="DejaVuSans-103"/>
       <path d="M 9.421875 54.6875 
L 18.40625 54.6875 
L 18.40625 0 
L 9.421875 0 
z
M 9.421875 75.984375 
L 18.40625 75.984375 
L 18.40625 64.59375 
L 9.421875 64.59375 
z
" id="DejaVuSans-105"/>
       <path d="M 18.3125 70.21875 
L 18.3125 54.6875 
L 36.8125 54.6875 
L 36.8125 47.703125 
L 18.3125 47.703125 
L 18.3125 18.015625 
Q 18.3125 11.328125 20.140625 9.421875 
Q 21.96875 7.515625 27.59375 7.515625 
L 36.8125 7.515625 
L 36.8125 0 
L 27.59375 0 
Q 17.1875 0 13.234375 3.875 
Q 9.28125 7.765625 9.28125 18.015625 
L 9.28125 47.703125 
L 2.6875 47.703125 
L 2.6875 54.6875 
L 9.28125 54.6875 
L 9.28125 70.21875 
z
" id="DejaVuSans-116"/>
       <path d="M 8.5 21.578125 
L 8.5 54.6875 
L 17.484375 54.6875 
L 17.484375 21.921875 
Q 17.484375 14.15625 20.5 10.265625 
Q 23.53125 6.390625 29.59375 6.390625 
Q 36.859375 6.390625 41.078125 11.03125 
Q 45.3125 15.671875 45.3125 23.6875 
L 45.3125 54.6875 
L 54.296875 54.6875 
L 54.296875 0 
L 45.3125 0 
L 45.3125 8.40625 
Q 42.046875 3.421875 37.71875 1 
Q 33.40625 -1.421875 27.6875 -1.421875 
Q 18.265625 -1.421875 13.375 4.4375 
Q 8.5 10.296875 8.5 21.578125 
z
M 31.109375 56 
z
" id="DejaVuSans-117"/>
       <path d="M 45.40625 46.390625 
L 45.40625 75.984375 
L 54.390625 75.984375 
L 54.390625 0 
L 45.40625 0 
L 45.40625 8.203125 
Q 42.578125 3.328125 38.25 0.953125 
Q 33.9375 -1.421875 27.875 -1.421875 
Q 17.96875 -1.421875 11.734375 6.484375 
Q 5.515625 14.40625 5.515625 27.296875 
Q 5.515625 40.1875 11.734375 48.09375 
Q 17.96875 56 27.875 56 
Q 33.9375 56 38.25 53.625 
Q 42.578125 51.265625 45.40625 46.390625 
z
M 14.796875 27.296875 
Q 14.796875 17.390625 18.875 11.75 
Q 22.953125 6.109375 30.078125 6.109375 
Q 37.203125 6.109375 41.296875 11.75 
Q 45.40625 17.390625 45.40625 27.296875 
Q 45.40625 37.203125 41.296875 42.84375 
Q 37.203125 48.484375 30.078125 48.484375 
Q 22.953125 48.484375 18.875 42.84375 
Q 14.796875 37.203125 14.796875 27.296875 
z
" id="DejaVuSans-100"/>
       <path d="M 56.203125 29.59375 
L 56.203125 25.203125 
L 14.890625 25.203125 
Q 15.484375 15.921875 20.484375 11.0625 
Q 25.484375 6.203125 34.421875 6.203125 
Q 39.59375 6.203125 44.453125 7.46875 
Q 49.3125 8.734375 54.109375 11.28125 
L 54.109375 2.78125 
Q 49.265625 0.734375 44.1875 -0.34375 
Q 39.109375 -1.421875 33.890625 -1.421875 
Q 20.796875 -1.421875 13.15625 6.1875 
Q 5.515625 13.8125 5.515625 26.8125 
Q 5.515625 40.234375 12.765625 48.109375 
Q 20.015625 56 32.328125 56 
Q 43.359375 56 49.78125 48.890625 
Q 56.203125 41.796875 56.203125 29.59375 
z
M 47.21875 32.234375 
Q 47.125 39.59375 43.09375 43.984375 
Q 39.0625 48.390625 32.421875 48.390625 
Q 24.90625 48.390625 20.390625 44.140625 
Q 15.875 39.890625 15.1875 32.171875 
z
" id="DejaVuSans-101"/>
      </defs>
      <use xlink:href="#DejaVuSans-76"/>
      <use x="53.962891" xlink:href="#DejaVuSans-111"/>
      <use x="115.144531" xlink:href="#DejaVuSans-110"/>
      <use x="178.523438" xlink:href="#DejaVuSans-103"/>
      <use x="242" xlink:href="#DejaVuSans-105"/>
      <use x="269.783203" xlink:href="#DejaVuSans-116"/>
      <use x="308.992188" xlink:href="#DejaVuSans-117"/>
      <use x="372.371094" xlink:href="#DejaVuSans-100"/>
      <use x="435.847656" xlink:href="#DejaVuSans-101"/>
     </g>
    </g>
   </g>
   <g id="matplotlib.axis_2">
    <g id="ytick_1">
     <g id="line2d_5">
      <defs>
       <path d="M 0 0 
L -3.5 0 
" id="m97af2c9147" style="stroke:#000000;stroke-width:0.8;"/>
      </defs>
      <g>
       <use style="stroke:#000000;stroke-width:0.8;" x="141.118407" xlink:href="#m97af2c9147" y="248.971979"/>
      </g>
     </g>
     <g id="text_6">
      <!-- 47 -->
      <g transform="translate(121.393407 252.771197)scale(0.1 -0.1)">
       <defs>
        <path d="M 37.796875 64.3125 
L 12.890625 25.390625 
L 37.796875 25.390625 
z
M 35.203125 72.90625 
L 47.609375 72.90625 
L 47.609375 25.390625 
L 58.015625 25.390625 
L 58.015625 17.1875 
L 47.609375 17.1875 
L 47.609375 0 
L 37.796875 0 
L 37.796875 17.1875 
L 4.890625 17.1875 
L 4.890625 26.703125 
z
" id="DejaVuSans-52"/>
       </defs>
       <use xlink:href="#DejaVuSans-52"/>
       <use x="63.623047" xlink:href="#DejaVuSans-55"/>
      </g>
     </g>
    </g>
    <g id="ytick_2">
     <g id="line2d_6">
      <g>
       <use style="stroke:#000000;stroke-width:0.8;" x="141.118407" xlink:href="#m97af2c9147" y="223.591152"/>
      </g>
     </g>
     <g id="text_7">
      <!-- 48 -->
      <g transform="translate(121.393407 227.390371)scale(0.1 -0.1)">
       <defs>
        <path d="M 31.78125 34.625 
Q 24.75 34.625 20.71875 30.859375 
Q 16.703125 27.09375 16.703125 20.515625 
Q 16.703125 13.921875 20.71875 10.15625 
Q 24.75 6.390625 31.78125 6.390625 
Q 38.8125 6.390625 42.859375 10.171875 
Q 46.921875 13.96875 46.921875 20.515625 
Q 46.921875 27.09375 42.890625 30.859375 
Q 38.875 34.625 31.78125 34.625 
z
M 21.921875 38.8125 
Q 15.578125 40.375 12.03125 44.71875 
Q 8.5 49.078125 8.5 55.328125 
Q 8.5 64.0625 14.71875 69.140625 
Q 20.953125 74.21875 31.78125 74.21875 
Q 42.671875 74.21875 48.875 69.140625 
Q 55.078125 64.0625 55.078125 55.328125 
Q 55.078125 49.078125 51.53125 44.71875 
Q 48 40.375 41.703125 38.8125 
Q 48.828125 37.15625 52.796875 32.3125 
Q 56.78125 27.484375 56.78125 20.515625 
Q 56.78125 9.90625 50.3125 4.234375 
Q 43.84375 -1.421875 31.78125 -1.421875 
Q 19.734375 -1.421875 13.25 4.234375 
Q 6.78125 9.90625 6.78125 20.515625 
Q 6.78125 27.484375 10.78125 32.3125 
Q 14.796875 37.15625 21.921875 38.8125 
z
M 18.3125 54.390625 
Q 18.3125 48.734375 21.84375 45.5625 
Q 25.390625 42.390625 31.78125 42.390625 
Q 38.140625 42.390625 41.71875 45.5625 
Q 45.3125 48.734375 45.3125 54.390625 
Q 45.3125 60.0625 41.71875 63.234375 
Q 38.140625 66.40625 31.78125 66.40625 
Q 25.390625 66.40625 21.84375 63.234375 
Q 18.3125 60.0625 18.3125 54.390625 
z
" id="DejaVuSans-56"/>
       </defs>
       <use xlink:href="#DejaVuSans-52"/>
       <use x="63.623047" xlink:href="#DejaVuSans-56"/>
      </g>
     </g>
    </g>
    <g id="ytick_3">
     <g id="line2d_7">
      <g>
       <use style="stroke:#000000;stroke-width:0.8;" x="141.118407" xlink:href="#m97af2c9147" y="198.210326"/>
      </g>
     </g>
     <g id="text_8">
      <!-- 49 -->
      <g transform="translate(121.393407 202.009545)scale(0.1 -0.1)">
       <defs>
        <path d="M 10.984375 1.515625 
L 10.984375 10.5 
Q 14.703125 8.734375 18.5 7.8125 
Q 22.3125 6.890625 25.984375 6.890625 
Q 35.75 6.890625 40.890625 13.453125 
Q 46.046875 20.015625 46.78125 33.40625 
Q 43.953125 29.203125 39.59375 26.953125 
Q 35.25 24.703125 29.984375 24.703125 
Q 19.046875 24.703125 12.671875 31.3125 
Q 6.296875 37.9375 6.296875 49.421875 
Q 6.296875 60.640625 12.9375 67.421875 
Q 19.578125 74.21875 30.609375 74.21875 
Q 43.265625 74.21875 49.921875 64.515625 
Q 56.59375 54.828125 56.59375 36.375 
Q 56.59375 19.140625 48.40625 8.859375 
Q 40.234375 -1.421875 26.421875 -1.421875 
Q 22.703125 -1.421875 18.890625 -0.6875 
Q 15.09375 0.046875 10.984375 1.515625 
z
M 30.609375 32.421875 
Q 37.25 32.421875 41.125 36.953125 
Q 45.015625 41.5 45.015625 49.421875 
Q 45.015625 57.28125 41.125 61.84375 
Q 37.25 66.40625 30.609375 66.40625 
Q 23.96875 66.40625 20.09375 61.84375 
Q 16.21875 57.28125 16.21875 49.421875 
Q 16.21875 41.5 20.09375 36.953125 
Q 23.96875 32.421875 30.609375 32.421875 
z
" id="DejaVuSans-57"/>
       </defs>
       <use xlink:href="#DejaVuSans-52"/>
       <use x="63.623047" xlink:href="#DejaVuSans-57"/>
      </g>
     </g>
    </g>
    <g id="ytick_4">
     <g id="line2d_8">
      <g>
       <use style="stroke:#000000;stroke-width:0.8;" x="141.118407" xlink:href="#m97af2c9147" y="172.8295"/>
      </g>
     </g>
     <g id="text_9">
      <!-- 50 -->
      <g transform="translate(121.393407 176.628719)scale(0.1 -0.1)">
       <use xlink:href="#DejaVuSans-53"/>
       <use x="63.623047" xlink:href="#DejaVuSans-48"/>
      </g>
     </g>
    </g>
    <g id="ytick_5">
     <g id="line2d_9">
      <g>
       <use style="stroke:#000000;stroke-width:0.8;" x="141.118407" xlink:href="#m97af2c9147" y="147.448674"/>
      </g>
     </g>
     <g id="text_10">
      <!-- 51 -->
      <g transform="translate(121.393407 151.247893)scale(0.1 -0.1)">
       <use xlink:href="#DejaVuSans-53"/>
       <use x="63.623047" xlink:href="#DejaVuSans-49"/>
      </g>
     </g>
    </g>
    <g id="ytick_6">
     <g id="line2d_10">
      <g>
       <use style="stroke:#000000;stroke-width:0.8;" x="141.118407" xlink:href="#m97af2c9147" y="122.067848"/>
      </g>
     </g>
     <g id="text_11">
      <!-- 52 -->
      <g transform="translate(121.393407 125.867066)scale(0.1 -0.1)">
       <use xlink:href="#DejaVuSans-53"/>
       <use x="63.623047" xlink:href="#DejaVuSans-50"/>
      </g>
     </g>
    </g>
    <g id="ytick_7">
     <g id="line2d_11">
      <g>
       <use style="stroke:#000000;stroke-width:0.8;" x="141.118407" xlink:href="#m97af2c9147" y="96.687021"/>
      </g>
     </g>
     <g id="text_12">
      <!-- 53 -->
      <g transform="translate(121.393407 100.48624)scale(0.1 -0.1)">
       <defs>
        <path d="M 40.578125 39.3125 
Q 47.65625 37.796875 51.625 33 
Q 55.609375 28.21875 55.609375 21.1875 
Q 55.609375 10.40625 48.1875 4.484375 
Q 40.765625 -1.421875 27.09375 -1.421875 
Q 22.515625 -1.421875 17.65625 -0.515625 
Q 12.796875 0.390625 7.625 2.203125 
L 7.625 11.71875 
Q 11.71875 9.328125 16.59375 8.109375 
Q 21.484375 6.890625 26.8125 6.890625 
Q 36.078125 6.890625 40.9375 10.546875 
Q 45.796875 14.203125 45.796875 21.1875 
Q 45.796875 27.640625 41.28125 31.265625 
Q 36.765625 34.90625 28.71875 34.90625 
L 20.21875 34.90625 
L 20.21875 43.015625 
L 29.109375 43.015625 
Q 36.375 43.015625 40.234375 45.921875 
Q 44.09375 48.828125 44.09375 54.296875 
Q 44.09375 59.90625 40.109375 62.90625 
Q 36.140625 65.921875 28.71875 65.921875 
Q 24.65625 65.921875 20.015625 65.03125 
Q 15.375 64.15625 9.8125 62.3125 
L 9.8125 71.09375 
Q 15.4375 72.65625 20.34375 73.4375 
Q 25.25 74.21875 29.59375 74.21875 
Q 40.828125 74.21875 47.359375 69.109375 
Q 53.90625 64.015625 53.90625 55.328125 
Q 53.90625 49.265625 50.4375 45.09375 
Q 46.96875 40.921875 40.578125 39.3125 
z
" id="DejaVuSans-51"/>
       </defs>
       <use xlink:href="#DejaVuSans-53"/>
       <use x="63.623047" xlink:href="#DejaVuSans-51"/>
      </g>
     </g>
    </g>
    <g id="ytick_8">
     <g id="line2d_12">
      <g>
       <use style="stroke:#000000;stroke-width:0.8;" x="141.118407" xlink:href="#m97af2c9147" y="71.306195"/>
      </g>
     </g>
     <g id="text_13">
      <!-- 54 -->
      <g transform="translate(121.393407 75.105414)scale(0.1 -0.1)">
       <use xlink:href="#DejaVuSans-53"/>
       <use x="63.623047" xlink:href="#DejaVuSans-52"/>
      </g>
     </g>
    </g>
    <g id="ytick_9">
     <g id="line2d_13">
      <g>
       <use style="stroke:#000000;stroke-width:0.8;" x="141.118407" xlink:href="#m97af2c9147" y="45.925369"/>
      </g>
     </g>
     <g id="text_14">
      <!-- 55 -->
      <g transform="translate(121.393407 49.724588)scale(0.1 -0.1)">
       <use xlink:href="#DejaVuSans-53"/>
       <use x="63.623047" xlink:href="#DejaVuSans-53"/>
      </g>
     </g>
    </g>
    <g id="text_15">
     <!-- Latitude -->
     <g transform="translate(115.31372 163.858906)rotate(-90)scale(0.1 -0.1)">
      <defs>
       <path d="M 34.28125 27.484375 
Q 23.390625 27.484375 19.1875 25 
Q 14.984375 22.515625 14.984375 16.5 
Q 14.984375 11.71875 18.140625 8.90625 
Q 21.296875 6.109375 26.703125 6.109375 
Q 34.1875 6.109375 38.703125 11.40625 
Q 43.21875 16.703125 43.21875 25.484375 
L 43.21875 27.484375 
z
M 52.203125 31.203125 
L 52.203125 0 
L 43.21875 0 
L 43.21875 8.296875 
Q 40.140625 3.328125 35.546875 0.953125 
Q 30.953125 -1.421875 24.3125 -1.421875 
Q 15.921875 -1.421875 10.953125 3.296875 
Q 6 8.015625 6 15.921875 
Q 6 25.140625 12.171875 29.828125 
Q 18.359375 34.515625 30.609375 34.515625 
L 43.21875 34.515625 
L 43.21875 35.40625 
Q 43.21875 41.609375 39.140625 45 
Q 35.0625 48.390625 27.6875 48.390625 
Q 23 48.390625 18.546875 47.265625 
Q 14.109375 46.140625 10.015625 43.890625 
L 10.015625 52.203125 
Q 14.9375 54.109375 19.578125 55.046875 
Q 24.21875 56 28.609375 56 
Q 40.484375 56 46.34375 49.84375 
Q 52.203125 43.703125 52.203125 31.203125 
z
" id="DejaVuSans-97"/>
      </defs>
      <use xlink:href="#DejaVuSans-76"/>
      <use x="55.712891" xlink:href="#DejaVuSans-97"/>
      <use x="116.992188" xlink:href="#DejaVuSans-116"/>
      <use x="156.201172" xlink:href="#DejaVuSans-105"/>
      <use x="183.984375" xlink:href="#DejaVuSans-116"/>
      <use x="223.193359" xlink:href="#DejaVuSans-117"/>
      <use x="286.572266" xlink:href="#DejaVuSans-100"/>
      <use x="350.048828" xlink:href="#DejaVuSans-101"/>
     </g>
    </g>
   </g>
   <g id="patch_3">
    <path d="M 141.118407 252 
L 141.118407 34.56 
" style="fill:none;stroke:#000000;stroke-linecap:square;stroke-linejoin:miter;stroke-width:0.8;"/>
   </g>
   <g id="patch_4">
    <path d="M 301.681593 252 
L 301.681593 34.56 
" style="fill:none;stroke:#000000;stroke-linecap:square;stroke-linejoin:miter;stroke-width:0.8;"/>
   </g>
   <g id="patch_5">
    <path d="M 141.118407 252 
L 301.681593 252 
" style="fill:none;stroke:#000000;stroke-linecap:square;stroke-linejoin:miter;stroke-width:0.8;"/>
   </g>
   <g id="patch_6">
    <path d="M 141.118407 34.56 
L 301.681593 34.56 
" style="fill:none;stroke:#000000;stroke-linecap:square;stroke-linejoin:miter;stroke-width:0.8;"/>
   </g>
  </g>
 </g>
 <defs>
  <clipPath id="p96ced2d261">
   <rect height="217.44" width="160.563186" x="141.118407" y="34.56"/>
  </clipPath>
 </defs>
</svg>
