<?xml version="1.0" encoding="utf-8" standalone="no"?>
<!DOCTYPE svg PUBLIC "-//W3C//DTD SVG 1.1//EN"
  "http://www.w3.org/Graphics/SVG/1.1/DTD/svg11.dtd">
<!-- Created with matplotlib (https://matplotlib.org/) -->
<svg height="288pt" version="1.1" viewBox="0 0 432 288" width="432pt" xmlns="http://www.w3.org/2000/svg" xmlns:xlink="http://www.w3.org/1999/xlink">
 <metadata>
  <rdf:RDF xmlns:cc="http://creativecommons.org/ns#" xmlns:dc="http://purl.org/dc/elements/1.1/" xmlns:rdf="http://www.w3.org/1999/02/22-rdf-syntax-ns#">
   <cc:Work>
    <dc:type rdf:resource="http://purl.org/dc/dcmitype/StillImage"/>
    <dc:date>2020-10-05T11:11:26.519077</dc:date>
    <dc:format>image/svg+xml</dc:format>
    <dc:creator>
     <cc:Agent>
      <dc:title>Matplotlib v3.3.1, https://matplotlib.org/</dc:title>
     </cc:Agent>
    </dc:creator>
   </cc:Work>
  </rdf:RDF>
 </metadata>
 <defs>
  <style type="text/css">*{stroke-linecap:butt;stroke-linejoin:round;}</style>
 </defs>
 <g id="figure_1">
  <g id="patch_1">
   <path d="M 0 288 
L 432 288 
L 432 0 
L 0 0 
z
" style="fill:#ffffff;"/>
  </g>
  <g id="axes_1">
   <g id="patch_2">
    <path d="M 54 246.160041 
L 388.8 246.160041 
L 388.8 40.399959 
L 54 40.399959 
z
" style="fill:#ffffff;"/>
   </g>
   <g id="PatchCollection_1">
    <path clip-path="url(#pc5afcde57c)" d="M 309.425181 52.335797 
L 309.090537 53.482904 
L 309.889445 54.285201 
L 310.041941 55.291673 
L 310.008053 55.715272 
L 309.585301 56.18462 
L 309.481943 57.163981 
L 309.692048 57.571483 
L 310.474859 58.04422 
L 310.67734 58.382252 
L 310.585842 58.666064 
L 309.910625 58.853294 
L 309.591231 59.291296 
L 309.632744 59.730992 
L 310.048719 60.203729 
L 309.804725 61.239005 
L 310.461304 61.474526 
L 311.266143 60.822183 
L 313.068134 61.835433 
L 315.491968 61.217825 
L 316.751752 60.978068 
L 322.088255 61.699881 
L 323.104893 61.26781 
L 323.696237 61.389806 
L 325.037352 61.149202 
L 325.601586 60.433319 
L 326.064156 60.645119 
L 326.631779 60.484151 
L 327.936465 60.582426 
L 329.169138 60.674771 
L 329.190318 60.440097 
L 329.907895 59.983457 
L 329.71897 59.459888 
L 330.895729 59.484457 
L 331.505712 58.69741 
L 332.758718 58.502554 
L 333.176387 58.26788 
L 333.278051 58.102677 
L 332.88495 57.689244 
L 333.424616 57.028429 
L 332.860382 56.567553 
L 333.7923 56.421835 
L 334.494627 55.968584 
L 335.485849 55.975362 
L 336.006029 55.719508 
L 336.056014 55.169676 
L 336.414379 54.853671 
L 336.58636 54.272493 
L 336.974377 54.053916 
L 337.869866 54.032736 
L 338.255341 53.856518 
L 338.179093 53.388018 
L 339.025444 52.407809 
L 340.069193 52.648414 
L 340.698661 52.506084 
L 341.946584 52.721273 
L 342.648064 52.533195 
L 344.154383 53.557457 
L 345.737797 53.765868 
L 346.070746 54.277576 
L 346.058885 54.420753 
L 345.121884 54.497848 
L 345.137133 55.084956 
L 343.287699 56.088886 
L 342.655689 57.149579 
L 343.955291 57.888335 
L 344.025609 58.471208 
L 343.613871 58.656744 
L 344.10694 59.051539 
L 345.043094 59.07526 
L 345.197284 59.829267 
L 344.638133 60.967902 
L 344.160313 61.088204 
L 342.755659 61.9964 
L 343.057261 62.544538 
L 342.877655 63.266351 
L 342.580289 63.406986 
L 342.350698 63.522205 
L 342.12026 63.701811 
L 342.070275 63.900055 
L 341.958445 64.061023 
L 341.804255 64.233851 
L 341.864406 64.448192 
L 341.79663 64.584591 
L 341.673786 64.675242 
L 341.155301 64.737087 
L 341.106163 64.859084 
L 340.935029 65.054786 
L 339.693884 65.386888 
L 339.274521 65.903679 
L 337.002335 65.538537 
L 336.621942 66.26035 
L 336.266119 66.604312 
L 335.461281 66.693268 
L 335.1529 67.107548 
L 334.438712 67.132117 
L 334.329424 67.760738 
L 333.81941 68.149602 
L 333.667762 69.230627 
L 333.357687 69.712683 
L 333.504252 70.390442 
L 332.913755 70.751348 
L 331.602292 71.102088 
L 332.233455 71.520604 
L 332.729066 71.481633 
L 332.280051 72.236487 
L 332.85784 72.578755 
L 334.898741 72.928648 
L 335.242704 73.292096 
L 337.355616 73.609795 
L 339.479543 74.584921 
L 340.968917 74.897537 
L 340.832518 75.320289 
L 339.850615 75.823525 
L 338.927169 76.052268 
L 338.133344 75.605795 
L 337.63858 75.770999 
L 337.531833 76.271693 
L 338.471376 76.979103 
L 338.300242 77.505214 
L 338.634886 78.163487 
L 338.278215 78.616738 
L 338.337519 79.125057 
L 336.3627 79.112349 
L 336.105151 78.843787 
L 336.172927 78.447298 
L 335.812868 78.241429 
L 335.111388 78.643001 
L 334.602222 78.548115 
L 334.023585 78.155015 
L 333.385645 78.246512 
L 333.96174 78.480339 
L 334.236232 78.936979 
L 334.654748 78.898855 
L 334.764036 79.222485 
L 335.025821 79.375828 
L 335.5765 79.697763 
L 335.64597 80.039184 
L 336.359311 80.234887 
L 336.265272 80.450075 
L 335.922157 80.490741 
L 335.697649 80.924506 
L 336.065333 82.108042 
L 335.585819 83.234816 
L 336.139887 83.462712 
L 337.608929 82.9222 
L 337.969835 82.989976 
L 339.171162 82.237664 
L 340.203897 82.173277 
L 340.564804 82.27494 
L 340.719841 82.790884 
L 341.476389 82.842563 
L 343.199591 83.430519 
L 343.729089 83.430519 
L 344.455138 83.069612 
L 345.189659 82.997601 
L 345.725936 83.239899 
L 346.651924 83.296662 
L 347.636368 83.907492 
L 347.982025 84.639471 
L 347.760907 84.973267 
L 347.071287 85.182525 
L 346.196131 85.798438 
L 346.018219 86.48128 
L 347.004358 86.32709 
L 347.768531 86.444851 
L 347.768531 86.937073 
L 349.440054 87.429295 
L 350.636298 88.766174 
L 349.996663 89.007626 
L 349.357028 89.695551 
L 349.21724 90.659663 
L 349.501052 91.098511 
L 349.326529 91.37724 
L 349.511218 91.783048 
L 350.558355 92.518416 
L 351.251364 93.6723 
L 349.871278 94.525429 
L 351.258141 94.993929 
L 350.265225 95.437014 
L 349.947525 96.021581 
L 349.385833 96.151202 
L 350.437206 97.002637 
L 350.422804 97.630411 
L 351.147158 97.837127 
L 351.651241 97.715978 
L 352.373054 98.071801 
L 352.383221 97.56094 
L 352.989815 97.017886 
L 354.121672 96.827267 
L 354.744363 96.723061 
L 355.154407 96.858613 
L 356.778486 96.723908 
L 357.349498 96.927236 
L 357.301207 97.205964 
L 357.858664 97.039913 
L 358.132309 97.914222 
L 358.616059 98.124327 
L 358.674516 98.331891 
L 357.669739 98.55301 
L 357.510465 99.068953 
L 356.942842 99.229921 
L 358.092491 99.594216 
L 357.679058 100.353306 
L 357.836637 100.607466 
L 358.928675 101.353847 
L 359.513242 101.511426 
L 360.755235 101.280141 
L 361.258471 101.317418 
L 361.817622 101.712212 
L 362.732596 101.813029 
L 363.448479 102.578049 
L 363.833107 104.124186 
L 363.070628 106.819971 
L 362.780039 106.997883 
L 361.979437 107.012285 
L 362.979131 107.102088 
L 364.250775 106.45737 
L 365.024268 106.25489 
L 365.721512 106.211683 
L 367.69972 106.543785 
L 369.02728 106.95044 
L 371.607846 106.884358 
L 373.527597 106.356554 
L 373.581818 107.045326 
L 371.317257 108.319512 
L 371.92724 109.032006 
L 371.634109 109.244653 
L 371.835742 109.579296 
L 370.825882 110.707765 
L 371.145276 111.223708 
L 371.844214 111.394842 
L 371.648512 111.917564 
L 372.446572 112.14546 
L 369.696566 113.888994 
L 369.576264 114.044879 
L 369.433935 114.086392 
L 369.283134 114.130446 
L 369.17554 114.393925 
L 368.599445 115.132682 
L 367.177846 115.309746 
L 367.069404 115.874827 
L 366.426381 116.450075 
L 366.684776 116.921117 
L 367.992003 117.431978 
L 367.41252 118.454546 
L 368.257176 119.470337 
L 368.564709 119.830397 
L 368.54353 120.164193 
L 367.395576 121.073237 
L 368.007253 121.834868 
L 368.05639 122.356742 
L 366.792371 122.988752 
L 366.362841 124.317159 
L 367.187165 124.677218 
L 369.941407 124.61622 
L 371.259647 124.316312 
L 371.901824 124.351894 
L 371.776438 124.590804 
L 372.195802 124.892407 
L 371.158831 125.777729 
L 370.317563 126.111525 
L 368.552849 126.370768 
L 368.34698 126.540208 
L 367.757329 126.373309 
L 366.360299 126.408045 
L 365.967199 126.955335 
L 364.718429 126.959571 
L 363.284969 127.347588 
L 363.135015 127.605136 
L 364.837884 128.818324 
L 366.06378 129.30038 
L 365.520726 129.867156 
L 364.559156 130.236534 
L 362.900341 132.076649 
L 361.742221 132.600217 
L 361.5067 132.722214 
L 361.636321 133.219519 
L 360.972965 134.020122 
L 360.915355 134.486928 
L 361.2949 135.124869 
L 360.689154 135.972914 
L 358.608434 135.888194 
L 357.303749 136.594758 
L 356.953856 137.212365 
L 355.097644 137.325043 
L 354.735043 137.632576 
L 354.78757 137.851153 
L 354.121672 137.968913 
L 353.666726 138.049397 
L 352.986426 138.710212 
L 353.099103 139.444733 
L 352.85511 140.463065 
L 350.283863 139.948816 
L 349.420568 140.245335 
L 348.470012 141.199281 
L 348.238726 141.79232 
L 347.752435 141.949899 
L 347.166173 141.95244 
L 346.113106 141.373804 
L 345.681035 141.62288 
L 343.552025 141.871109 
L 342.531998 141.752501 
L 341.915238 141.367026 
L 341.879655 140.403762 
L 341.301866 140.20467 
L 341.201897 139.966607 
L 342.330365 138.243406 
L 342.399835 137.714754 
L 341.204438 136.878569 
L 339.898906 137.180172 
L 339.379573 136.906527 
L 337.847838 136.892124 
L 336.722759 136.196574 
L 336.290688 135.550162 
L 335.03514 136.008496 
L 332.099598 136.519357 
L 330.043447 136.985316 
L 328.444784 137.616479 
L 327.14857 137.843528 
L 326.631779 138.023134 
L 325.954868 138.258655 
L 325.354204 138.645825 
L 325.609211 139.481163 
L 326.631779 140.07759 
L 326.900341 140.233475 
L 327.270567 140.641824 
L 327.406966 141.248418 
L 327.959339 141.663546 
L 327.690777 142.401455 
L 327.767872 142.954676 
L 329.237762 142.946204 
L 330.152736 143.236793 
L 330.06971 143.978091 
L 330.407742 144.429648 
L 329.624931 144.685502 
L 329.714734 145.798721 
L 329.264872 146.469702 
L 327.448479 146.184196 
L 326.631779 146.187585 
L 325.279651 146.194362 
L 322.448314 147.369426 
L 322.212793 147.467702 
L 320.926746 146.97209 
L 320.693766 146.593393 
L 319.999063 146.765374 
L 319.576311 146.470549 
L 317.990356 146.365496 
L 315.260683 146.837386 
L 314.125437 147.443133 
L 311.849015 147.897231 
L 309.89707 147.714236 
L 309.215923 147.481257 
L 307.3631 147.926883 
L 307.668938 148.860496 
L 306.447278 149.322219 
L 305.744951 149.879675 
L 305.399294 149.909327 
L 305.300172 150.612502 
L 303.893823 150.391383 
L 302.646747 150.910716 
L 302.197731 151.626598 
L 301.213287 152.040878 
L 300.915073 152.789802 
L 300.232231 153.530253 
L 298.199802 154.945074 
L 298.025279 155.026405 
L 297.849909 155.073001 
L 297.738079 155.166193 
L 297.669456 155.286495 
L 297.55339 155.452546 
L 297.000169 155.943921 
L 297.192483 156.048974 
L 297.971906 156.556446 
L 298.854687 156.831785 
L 299.62479 158.092416 
L 300.4686 158.511779 
L 301.681788 158.49653 
L 302.844144 157.957712 
L 303.308408 157.32316 
L 303.893823 157.237593 
L 307.477472 156.715719 
L 308.495804 156.083709 
L 310.903542 156.262468 
L 311.161937 156.842799 
L 311.996428 157.080861 
L 312.216699 157.35027 
L 311.577912 158.28473 
L 312.66995 160.852588 
L 313.415485 161.302451 
L 314.94722 161.757396 
L 314.680352 162.125928 
L 313.614577 162.497 
L 313.346862 162.852824 
L 313.426498 164.035513 
L 313.983108 164.465042 
L 312.121813 165.900196 
L 310.8256 166.555928 
L 310.321516 166.648272 
L 308.50597 168.199493 
L 308.534775 168.507026 
L 309.276074 169.100064 
L 309.416709 169.557552 
L 310.221547 169.540608 
L 310.901 169.764268 
L 310.651077 170.145507 
L 309.789476 170.296309 
L 308.41532 170.237852 
L 306.852239 170.868167 
L 305.264589 171.40868 
L 303.893823 171.229074 
L 300.582971 170.796156 
L 297.809244 170.825808 
L 297.04846 170.706353 
L 296.385103 170.822419 
L 295.867465 171.261268 
L 294.56278 171.293461 
L 294.173069 171.711977 
L 293.702873 171.790766 
L 292.474436 172.66677 
L 292.686235 173.255572 
L 293.878243 173.520746 
L 294.39334 173.874027 
L 294.484838 174.258655 
L 293.914673 175.138047 
L 293.418215 175.240558 
L 292.73029 175.947122 
L 293.180152 176.219072 
L 293.607987 175.847999 
L 293.910437 175.840375 
L 294.271344 176.164004 
L 294.355216 176.781612 
L 294.894034 177.030688 
L 295.157513 177.401761 
L 295.396423 177.817736 
L 294.870313 177.955829 
L 294.773732 178.293861 
L 294.404354 178.542937 
L 293.511407 178.694586 
L 293.529198 178.985175 
L 292.320246 179.637518 
L 291.870383 180.400843 
L 291.107058 180.71939 
L 290.112447 181.44205 
L 290.001464 181.697057 
L 290.353051 182.074907 
L 290.131085 182.030006 
L 289.595656 182.064741 
L 289.316927 182.134211 
L 288.823858 182.379052 
L 288.93823 183.751513 
L 287.996145 184.458076 
L 288.065616 185.09517 
L 288.678987 186.101641 
L 288.569699 186.426965 
L 287.580171 186.56167 
L 286.555061 186.430354 
L 285.3639 187.149626 
L 284.412496 187.790108 
L 283.605116 188.334009 
L 282.790111 188.674583 
L 282.535105 189.915728 
L 281.238891 190.215636 
L 280.922039 191.06114 
L 280.329847 191.217872 
L 279.98419 191.144166 
L 279.692754 190.889159 
L 278.429581 190.851882 
L 276.88175 191.175512 
L 275.821905 191.180595 
L 274.821364 190.175818 
L 274.575676 189.52517 
L 274.0089 189.429436 
L 272.432264 189.666652 
L 271.790935 190.365591 
L 269.683953 191.689762 
L 269.462834 192.106583 
L 269.073123 192.341257 
L 268.578359 192.535266 
L 268.011583 192.874992 
L 267.76166 193.125763 
L 267.553249 193.289272 
L 267.116942 193.340951 
L 266.673857 193.527335 
L 265.762271 194.011085 
L 264.708357 194.903185 
L 263.911143 196.081638 
L 262.082889 196.79159 
L 261.552543 197.198245 
L 260.816327 197.320242 
L 260.945949 198.223355 
L 261.777898 198.802839 
L 261.440713 199.190856 
L 262.620013 199.720355 
L 262.539529 200.12108 
L 262.994474 200.712424 
L 263.722218 201.080108 
L 263.972988 201.844281 
L 262.707274 203.689479 
L 262.575111 204.413834 
L 261.948184 205.254255 
L 260.899353 205.219519 
L 260.52235 206.070954 
L 260.166526 206.05401 
L 259.210039 205.081426 
L 258.188318 204.579885 
L 256.94802 204.595134 
L 256.43377 204.407903 
L 254.920674 205.28899 
L 253.372843 205.152591 
L 253.228819 205.090745 
L 253.489756 203.877557 
L 253.282192 202.766033 
L 252.207098 202.03829 
L 250.740597 201.015721 
L 249.843414 200.206647 
L 248.513313 199.701717 
L 247.29843 198.661357 
L 246.915497 197.853977 
L 247.200155 197.57779 
L 247.109505 196.603512 
L 247.598339 196.073166 
L 247.596644 195.179372 
L 247.490744 195.151414 
L 247.838096 194.56007 
L 247.726266 193.95517 
L 247.943995 193.617138 
L 247.23489 193.353659 
L 246.902789 192.566612 
L 246.322458 192.299744 
L 245.712475 192.497142 
L 244.695837 192.321772 
L 243.574994 192.599653 
L 242.716782 192.565765 
L 241.930582 192.29805 
L 241.479872 191.937991 
L 240.861417 191.348341 
L 240.819904 190.94931 
L 240.325141 190.799356 
L 239.930346 190.113125 
L 239.198367 190.005531 
L 238.76206 189.753066 
L 237.361641 189.823384 
L 235.401224 189.416728 
L 235.245339 188.66018 
L 235.857016 187.815523 
L 235.792629 187.275011 
L 237.285393 185.736499 
L 236.867724 185.383217 
L 236.211993 185.633988 
L 235.950208 185.447604 
L 235.237714 185.422188 
L 234.060109 184.652932 
L 232.452126 184.364037 
L 231.727772 184.543643 
L 231.311797 185.01045 
L 230.907684 185.464548 
L 230.179093 185.776317 
L 229.838519 185.980492 
L 229.641969 186.04149 
L 229.30309 186.21686 
L 229.066722 186.093169 
L 228.720217 186.234651 
L 228.55925 186.304969 
L 228.03907 186.250748 
L 227.454503 186.419341 
L 227.482461 186.593016 
L 228.34152 186.881064 
L 228.337284 187.441909 
L 228.987932 187.535948 
L 229.511501 187.840092 
L 228.963363 188.778788 
L 229.37256 189.703081 
L 228.621095 190.672276 
L 229.938489 191.568612 
L 229.059944 192.046432 
L 229.719064 192.573389 
L 229.244633 192.666581 
L 226.919074 192.176901 
L 225.723677 192.975809 
L 225.584736 193.472267 
L 225.088278 193.533265 
L 225.001017 193.80691 
L 224.90613 193.884005 
L 224.690095 194.059375 
L 224.452032 194.243217 
L 222.319634 194.737134 
L 221.146264 194.6719 
L 221.574946 195.175983 
L 222.616153 195.496224 
L 222.392493 196.133317 
L 222.944019 196.789049 
L 222.838119 196.934767 
L 222.443325 198.07086 
L 221.7554 197.59304 
L 221.015796 197.719272 
L 221.209804 198.563929 
L 221.016643 198.879087 
L 220.878549 198.946016 
L 220.598974 199.07479 
L 219.892411 198.908739 
L 217.585489 198.957876 
L 217.176293 199.101053 
L 215.957174 199.37724 
L 215.316692 200.077873 
L 215.545436 200.574331 
L 215.392093 200.936085 
L 215.403106 201.295297 
L 215.075241 201.455417 
L 214.407648 201.635023 
L 212.451467 201.225826 
L 211.851651 200.992 
L 210.437677 201.451181 
L 209.59302 201.867156 
L 209.181282 201.852753 
L 209.127908 202.370391 
L 208.87629 202.402585 
L 207.698684 202.363614 
L 205.796724 203.322642 
L 205.670492 203.331114 
L 203.037399 203.44718 
L 202.488415 203.899584 
L 202.349474 203.920764 
L 201.017678 204.00379 
L 199.634203 203.359919 
L 198.703132 203.63187 
L 197.871183 203.421765 
L 196.833365 203.383641 
L 195.403295 205.046691 
L 196.27252 205.165299 
L 196.141204 205.917611 
L 196.608858 206.397972 
L 196.267437 206.533524 
L 196.435182 207.194339 
L 195.895517 207.308711 
L 195.269437 207.951734 
L 195.443113 209.17763 
L 193.431864 210.025676 
L 192.382185 209.850306 
L 191.805243 210.168852 
L 191.052931 210.167158 
L 190.14897 210.68056 
L 187.071099 211.216837 
L 185.378396 210.970302 
L 183.734832 210.971149 
L 183.140946 211.358319 
L 183.067239 210.79239 
L 183.062156 210.585674 
L 183.060462 210.4569 
L 183.104516 210.00026 
L 183.11553 209.6707 
L 183.113835 209.484316 
L 183.09435 209.365708 
L 183.061309 209.260656 
L 183.011324 209.143742 
L 182.091267 209.234392 
L 181.683764 209.721532 
L 181.276262 210.410304 
L 181.155113 211.337139 
L 180.049519 211.648908 
L 179.684376 212.264821 
L 178.149253 212.181796 
L 177.745139 212.678254 
L 177.67228 213.316194 
L 176.515854 213.105242 
L 176.3659 213.011203 
L 175.335707 212.365638 
L 174.99005 212.34361 
L 174.6876 212.529994 
L 174.546118 213.206058 
L 173.93783 214.028688 
L 173.127908 214.484481 
L 172.760224 214.521757 
L 171.037023 213.932955 
L 170.726101 213.33568 
L 170.216087 213.261974 
L 169.952609 212.881581 
L 169.313821 212.973079 
L 168.170951 213.800792 
L 167.826988 214.2066 
L 166.456221 215.31643 
L 164.985485 216.301721 
L 164.456833 216.371191 
L 163.933264 216.318665 
L 163.755353 216.244112 
L 163.285158 216.441509 
L 162.782769 217.076061 
L 161.607705 216.999813 
L 161.314574 216.640601 
L 160.620719 216.451675 
L 159.425322 216.749889 
L 159.038152 216.84647 
L 158.595067 217.274305 
L 159.28384 218.818748 
L 158.072346 219.442286 
L 157.269202 219.622739 
L 156.664302 219.488034 
L 156.575347 219.238958 
L 155.551931 219.342316 
L 155.235079 219.53463 
L 155.44349 220.13953 
L 156.422851 220.360649 
L 155.775591 221.190903 
L 157.273438 221.589086 
L 156.579583 222.404091 
L 157.096374 223.092863 
L 156.67701 223.61389 
L 156.879491 223.918882 
L 156.799854 224.431437 
L 154.978378 224.731345 
L 154.387033 225.006684 
L 153.856687 225.519239 
L 152.866312 225.694609 
L 151.465046 224.803357 
L 149.244539 224.147625 
L 148.878549 223.661333 
L 148.715887 222.866661 
L 148.373619 222.615891 
L 146.641946 222.925118 
L 146.094656 223.250442 
L 145.515172 223.144542 
L 144.777262 223.904479 
L 143.606434 224.109501 
L 143.406495 224.552586 
L 143.895329 224.642389 
L 144.191848 224.305204 
L 144.562074 224.286566 
L 144.613753 224.882146 
L 145.169515 225.071919 
L 145.340649 225.377757 
L 145.133933 225.98774 
L 143.503923 226.862896 
L 143.728431 227.303439 
L 144.854357 227.566918 
L 145.762554 227.23058 
L 145.63378 227.684678 
L 145.822705 228.141318 
L 146.858829 228.536113 
L 146.467423 229.122374 
L 146.449632 229.863673 
L 145.76679 230.413504 
L 145.659196 230.903185 
L 147.003699 232.431531 
L 148.435465 232.885629 
L 148.415979 233.044902 
L 148.234679 233.334644 
L 148.262636 233.522722 
L 147.812774 233.627775 
L 146.372537 233.357519 
L 146.204791 233.771799 
L 145.692236 233.620997 
L 144.377385 234.117456 
L 142.610129 234.286048 
L 140.271014 235.148496 
L 139.666114 235.698328 
L 139.358581 234.805381 
L 138.539341 233.754007 
L 136.969482 232.704329 
L 136.049425 233.05761 
L 136.088396 233.941238 
L 135.731725 234.500389 
L 134.4694 234.921447 
L 133.143534 234.210647 
L 133.438359 232.491682 
L 132.587772 232.261244 
L 131.56944 232.322242 
L 131.438971 232.124845 
L 131.772767 231.813923 
L 131.499122 231.344575 
L 130.312197 231.645331 
L 129.720853 232.187538 
L 128.737256 232.305298 
L 127.920556 232.799215 
L 126.834448 233.060152 
L 126.490485 233.044055 
L 126.329518 232.763633 
L 125.586525 232.878852 
L 124.294547 233.491376 
L 124.061568 233.865838 
L 123.2957 233.770104 
L 123.192342 234.32163 
L 122.129108 234.782506 
L 121.49371 235.489917 
L 120.631262 235.472126 
L 119.902671 235.191703 
L 118.903824 235.620385 
L 118.515807 235.507708 
L 119.218982 235.023958 
L 119.381644 233.616761 
L 118.55732 233.353283 
L 118.292147 232.723814 
L 117.448337 232.771257 
L 116.913755 233.35413 
L 116.083501 232.919517 
L 116.02928 232.586568 
L 115.649735 232.401879 
L 116.10807 231.832562 
L 115.419297 231.175136 
L 113.879091 231.473349 
L 113.137792 231.682607 
L 113.546142 232.015556 
L 113.419909 232.634858 
L 114.084113 233.110984 
L 113.901965 233.46003 
L 114.528892 233.476974 
L 114.153583 233.87431 
L 114.682235 234.444474 
L 114.689012 234.985834 
L 115.448102 235.856754 
L 116.35291 235.890642 
L 116.457962 236.80731 
L 116.047071 236.779353 
L 115.600598 236.677689 
L 115.408284 236.747159 
L 115.125319 236.799686 
L 114.899118 236.763256 
L 114.740691 236.781894 
L 114.943172 235.806769 
L 114.379785 235.462807 
L 114.099362 234.869768 
L 111.700096 233.803992 
L 111.003699 232.756008 
L 109.495686 231.946933 
L 110.599586 231.045514 
L 111.713652 229.54682 
L 111.540823 228.640318 
L 112.232137 227.676206 
L 112.395646 227.040808 
L 112.160125 225.925895 
L 111.887327 225.620056 
L 111.194319 225.686137 
L 110.134474 225.453158 
L 109.347427 225.034642 
L 109.501617 224.439061 
L 109.068698 223.94345 
L 109.383856 223.235193 
L 109.952326 222.788719 
L 108.83826 222.702305 
L 108.468035 222.448145 
L 107.160808 222.063517 
L 107.045589 221.998283 
L 107.038811 221.894925 
L 106.611823 221.693292 
L 106.322928 221.786483 
L 105.640087 222.010144 
L 104.572617 221.900855 
L 104.181211 221.571295 
L 103.261154 221.479798 
L 102.41565 221.888994 
L 101.719253 221.556045 
L 99.507218 222.19568 
L 99.17088 221.989811 
L 99.177657 221.54249 
L 97.901777 220.09717 
L 96.709769 220.028547 
L 96.362417 219.505825 
L 97.071522 219.118656 
L 97.187589 218.844164 
L 96.29803 218.373968 
L 95.55419 218.235875 
L 95.52708 217.298874 
L 95.28817 216.976938 
L 96.464928 216.213613 
L 97.565439 215.940815 
L 98.005135 215.390136 
L 99.050578 214.842846 
L 99.512301 214.19728 
L 100.861888 214.34554 
L 101.512536 213.533924 
L 101.500675 212.995953 
L 102.599492 212.357166 
L 103.187447 211.721767 
L 103.202697 211.193115 
L 102.610505 210.953358 
L 101.759918 211.057563 
L 100.373902 211.144825 
L 98.870972 210.639895 
L 97.381597 210.647519 
L 96.874125 210.500954 
L 96.335307 210.816112 
L 96.364959 211.018592 
L 95.882903 211.282918 
L 95.371195 211.138047 
L 95.350862 211.034689 
L 95.707533 210.889818 
L 95.908319 210.61109 
L 94.623119 209.630034 
L 95.559273 209.561411 
L 97.012218 208.56087 
L 97.070675 208.293155 
L 96.797877 207.911916 
L 96.891069 208.469372 
L 95.948985 209.080202 
L 94.528233 208.079661 
L 94.042788 207.279059 
L 92.710992 206.405597 
L 92.469541 205.761726 
L 91.040317 204.400279 
L 90.867489 203.814865 
L 90.28038 203.109996 
L 89.147676 202.937167 
L 88.103928 202.982916 
L 86.697578 203.082885 
L 85.468294 202.832962 
L 84.238162 202.510179 
L 83.934865 203.224367 
L 83.600221 203.204035 
L 83.300313 202.38903 
L 83.843367 201.573178 
L 83.795924 201.033512 
L 82.205733 200.268492 
L 82.018502 199.51618 
L 82.685247 198.57579 
L 80.493545 197.679454 
L 79.565863 196.983057 
L 78.489921 196.668746 
L 78.455186 196.096887 
L 79.002476 195.580944 
L 79.378632 195.582638 
L 80.826494 196.225662 
L 82.421768 195.249689 
L 82.44549 194.848117 
L 82.431935 194.03989 
L 81.871937 193.595111 
L 81.950726 192.686067 
L 82.120166 192.48867 
L 84.037376 192.01085 
L 85.018431 191.599959 
L 85.321728 192.076931 
L 86.695037 192.363284 
L 86.977154 191.32123 
L 87.715064 190.563835 
L 87.754035 189.726803 
L 87.223689 189.32862 
L 86.820422 188.622056 
L 87.183023 187.4597 
L 87.793006 186.812441 
L 88.09122 186.416799 
L 87.966682 186.288872 
L 86.778909 186.029629 
L 85.325964 186.058434 
L 84.783757 185.48827 
L 81.96174 184.994353 
L 81.797383 184.280165 
L 81.705038 183.876051 
L 81.769426 183.475326 
L 80.94256 183.047491 
L 81.7923 182.535783 
L 82.598833 180.899843 
L 78.760177 180.926954 
L 77.806232 181.163322 
L 76.803149 180.724473 
L 76.598974 180.438967 
L 76.194013 180.535548 
L 76.039823 180.554186 
L 75.496769 180.618573 
L 74.804608 180.701599 
L 73.915897 181.18196 
L 73.604975 181.308193 
L 72.379926 181.586921 
L 71.717417 181.583532 
L 71.419203 181.138753 
L 72.252846 180.483022 
L 72.385856 179.354553 
L 71.65896 179.066506 
L 71.493757 178.496342 
L 70.610976 178.275223 
L 70.265319 178.01598 
L 69.845109 177.04848 
L 70.013701 176.733322 
L 69.999299 176.288543 
L 69.274097 175.567577 
L 69.218182 175.193115 
L 71.228584 174.926248 
L 73.038199 173.905374 
L 73.582948 174.163769 
L 74.197167 175.341375 
L 75.132474 176.322431 
L 76.039823 176.335986 
L 76.741303 176.439344 
L 76.970047 175.98694 
L 77.591043 175.697198 
L 77.76726 175.388818 
L 77.932464 174.333209 
L 78.719511 173.700352 
L 78.821175 173.314876 
L 79.444713 173.088674 
L 80.136027 172.398208 
L 81.220441 171.790766 
L 81.899894 171.502719 
L 82.392964 171.539996 
L 83.526515 171.270587 
L 84.821881 170.453887 
L 85.629261 169.585509 
L 86.562027 169.413528 
L 87.242327 169.099217 
L 87.300784 168.837433 
L 87.687953 168.895042 
L 88.103928 168.286754 
L 88.264895 168.05208 
L 90.458292 167.580191 
L 91.128426 167.179466 
L 93.523456 166.904974 
L 94.19952 166.801615 
L 94.302031 166.501707 
L 95.187353 166.015415 
L 92.300101 164.754784 
L 95.236491 163.821171 
L 95.599939 163.600053 
L 94.341849 163.063776 
L 90.855628 164.082956 
L 89.772061 164.727674 
L 88.826588 165.014874 
L 88.103928 164.947098 
L 87.442266 164.884405 
L 86.659454 163.975362 
L 86.203662 160.866991 
L 86.591679 160.639094 
L 87.593067 160.572166 
L 87.438877 160.143483 
L 87.300784 159.942697 
L 86.582359 158.900643 
L 88.103928 158.161886 
L 88.304714 158.026335 
L 90.562497 156.472573 
L 90.737867 156.351424 
L 90.972541 156.190456 
L 90.999652 155.935449 
L 91.094538 155.749913 
L 91.338531 155.274634 
L 91.425792 155.174665 
L 91.662161 154.988281 
L 92.06458 154.678207 
L 92.382279 154.434214 
L 92.664396 154.238511 
L 93.161702 153.731039 
L 93.480249 153.412492 
L 93.996192 152.306899 
L 94.81035 151.310593 
L 96.701297 151.053892 
L 96.630979 150.645543 
L 99.455539 148.976562 
L 99.438595 148.531783 
L 98.656631 146.568824 
L 99.53687 145.59624 
L 97.852639 145.504743 
L 98.609187 142.709836 
L 98.571911 141.738946 
L 99.090396 141.491564 
L 99.345403 139.329514 
L 98.999746 138.450969 
L 98.49651 137.804557 
L 98.507524 136.428707 
L 98.343167 135.861084 
L 97.433276 134.841057 
L 95.411014 133.771893 
L 93.729325 131.443792 
L 91.607093 130.296685 
L 90.6828 129.259714 
L 88.257271 128.151579 
L 88.419085 127.251854 
L 88.42078 126.817241 
L 88.839296 126.600359 
L 90.350698 123.877463 
L 89.259506 123.557222 
L 88.802866 123.641942 
L 88.103928 123.519098 
L 87.235549 123.36745 
L 86.943266 123.177677 
L 86.362088 123.157345 
L 83.731537 122.494835 
L 83.135109 122.16697 
L 82.903824 121.097805 
L 83.085125 120.616597 
L 82.683553 119.410186 
L 82.969906 119.100112 
L 83.873019 119.006073 
L 84.155136 118.729039 
L 83.462975 118.583321 
L 83.163914 118.130069 
L 79.897964 116.921117 
L 76.676916 116.871133 
L 76.432923 116.5636 
L 76.460881 116.095099 
L 76.649806 115.827384 
L 79.369313 114.671806 
L 79.659054 114.33801 
L 79.032128 113.855954 
L 79.342202 113.142613 
L 78.328953 112.882523 
L 78.183235 112.719861 
L 78.518725 111.859954 
L 77.28351 111.096629 
L 76.039823 110.661169 
L 76.039823 110.351094 
L 76.471047 110.379052 
L 76.754858 110.211306 
L 76.039823 109.710612 
L 75.883939 109.601324 
L 76.039823 109.490341 
L 77.27758 108.612643 
L 79.142263 109.04895 
L 79.840355 109.061658 
L 81.282286 108.693974 
L 81.966823 108.197516 
L 82.697108 107.928107 
L 83.207121 108.041631 
L 83.541765 107.943356 
L 85.00657 107.246959 
L 84.902365 106.906386 
L 85.437794 106.75389 
L 85.796159 106.132893 
L 88.103928 107.18935 
L 88.635968 107.433343 
L 92.434806 107.756125 
L 94.524844 108.217849 
L 94.309656 107.076672 
L 94.435041 106.475162 
L 92.762671 105.805028 
L 92.023915 104.44951 
L 90.30156 103.882735 
L 89.181564 103.830208 
L 90.425251 103.108395 
L 91.161467 103.30664 
L 93.674257 102.787307 
L 94.401153 103.234628 
L 94.640063 103.1372 
L 96.540329 103.936955 
L 96.533551 104.26821 
L 95.915944 104.434261 
L 96.242115 104.847694 
L 97.135062 105.400067 
L 98.493121 105.881276 
L 100.267155 105.754196 
L 102.536799 105.881276 
L 103.605116 105.376345 
L 105.752764 105.924483 
L 106.433064 107.463842 
L 107.829247 107.31643 
L 109.886245 107.417246 
L 110.857981 107.780694 
L 111.40866 108.763444 
L 113.428381 108.858331 
L 114.466199 109.325137 
L 114.973671 109.297179 
L 114.615306 108.645684 
L 114.917756 108.494035 
L 114.561933 107.971314 
L 115.023656 107.193586 
L 113.265719 106.335374 
L 113.619848 105.483939 
L 114.243386 105.744029 
L 115.343049 105.722002 
L 116.579112 106.107477 
L 117.051849 106.596311 
L 118.59375 106.176101 
L 119.762883 107.002119 
L 120.463516 107.118185 
L 120.829506 106.895372 
L 122.684023 106.45144 
L 122.972918 105.927024 
L 124.142899 105.480551 
L 125.096844 105.323819 
L 126.329518 104.635047 
L 126.508277 104.535077 
L 126.897141 104.554563 
L 127.170786 104.389359 
L 127.460528 104.668935 
L 127.797713 104.693503 
L 129.994498 103.7421 
L 133.220629 103.092298 
L 134.064439 103.103312 
L 134.545648 102.818653 
L 137.076229 102.033301 
L 138.255529 101.746947 
L 139.322152 101.935026 
L 139.566992 102.359472 
L 139.980425 102.454358 
L 140.132074 102.72292 
L 141.514701 103.502343 
L 142.366983 103.328667 
L 142.882927 102.855083 
L 143.440383 102.752572 
L 144.100351 102.542467 
L 144.314692 102.156144 
L 145.738832 101.764739 
L 147.101974 100.802321 
L 147.07317 100.607466 
L 147.773803 100.041537 
L 148.128779 98.255643 
L 149.470741 97.826113 
L 150.544141 97.754102 
L 150.745775 97.571954 
L 150.935547 97.002637 
L 150.453491 95.28113 
L 148.972588 95.145578 
L 148.995463 94.806699 
L 145.987909 93.278353 
L 145.371995 93.108066 
L 144.079171 92.276964 
L 141.015701 91.37724 
L 138.690989 91.352671 
L 138.695225 91.096817 
L 138.697767 90.968043 
L 138.624908 90.075943 
L 139.384845 89.162663 
L 139.409413 88.794132 
L 142.678752 88.396796 
L 143.916509 87.647025 
L 144.010548 87.397949 
L 143.555602 86.87438 
L 144.347733 86.610902 
L 144.551907 86.385547 
L 144.85351 84.687761 
L 152.153818 84.614055 
L 152.923922 84.491211 
L 153.87702 83.892242 
L 154.353992 83.655874 
L 155.093597 81.48874 
L 155.792535 81.081238 
L 157.031986 80.39416 
L 157.501334 79.786719 
L 159.425322 79.589322 
L 160.81981 79.446145 
L 161.816963 78.643848 
L 162.884433 77.407786 
L 163.547789 76.038713 
L 164.047636 75.709153 
L 164.325517 75.525311 
L 165.548872 75.39569 
L 166.651924 75.62528 
L 167.425416 75.591392 
L 169.402777 75.138989 
L 170.271155 74.833997 
L 170.711698 74.284165 
L 173.546424 74.140989 
L 174.14031 73.970702 
L 174.541035 73.270916 
L 175.700002 72.556728 
L 176.3659 72.449981 
L 178.147558 72.163628 
L 182.75547 72.324596 
L 183.031657 72.330526 
L 183.636557 72.343234 
L 190.328576 72.334762 
L 192.043306 70.988564 
L 192.218676 70.974161 
L 193.059097 70.90215 
L 193.694496 70.846234 
L 194.425628 70.783542 
L 194.884809 70.631046 
L 195.776909 70.307416 
L 196.117483 69.866873 
L 196.59615 69.288237 
L 197.798324 68.596076 
L 198.742103 68.754502 
L 199.40546 68.258043 
L 200.373807 68.293626 
L 201.258283 68.122492 
L 201.430264 67.549786 
L 202.235102 66.490788 
L 202.897611 66.26035 
L 204.447984 65.720684 
L 205.85857 65.231004 
L 207.874902 64.196574 
L 208.624672 64.062717 
L 209.746363 63.507802 
L 210.452926 63.364626 
L 211.154407 63.557787 
L 212.753917 63.312099 
L 212.744598 63.130799 
L 213.43337 62.709741 
L 214.098421 62.891889 
L 214.406801 62.835974 
L 213.632462 62.334432 
L 214.509312 61.248324 
L 214.594879 60.515498 
L 216.09442 59.530206 
L 216.097809 59.056622 
L 212.954703 58.10776 
L 213.55452 58.012874 
L 214.137392 56.773422 
L 215.264166 55.390795 
L 216.184223 54.582567 
L 216.659502 54.574095 
L 220.579488 55.560234 
L 221.807079 56.075331 
L 223.157513 56.112608 
L 224.602833 57.86292 
L 225.614388 60.756102 
L 226.553084 60.872168 
L 228.549083 61.530441 
L 228.970988 61.678701 
L 229.426781 61.838821 
L 230.395129 62.179395 
L 230.735702 62.29885 
L 231.37449 62.522511 
L 231.519361 62.573342 
L 233.284075 63.189256 
L 234.066886 63.30278 
L 236.583913 63.445957 
L 238.811197 62.786836 
L 240.405624 62.668229 
L 240.697061 62.496247 
L 240.871584 62.578426 
L 241.098633 62.681784 
L 241.244351 62.75549 
L 241.419721 62.841057 
L 241.606952 62.926624 
L 242.111035 63.158757 
L 242.478719 63.352765 
L 243.231031 63.757726 
L 244.500981 63.811946 
L 245.049119 64.62441 
L 244.933053 65.205588 
L 245.437136 65.120021 
L 245.857346 65.269975 
L 245.559132 66.26035 
L 246.869748 67.210906 
L 248.054978 68.24703 
L 248.985202 68.531689 
L 248.815763 68.928177 
L 245.838708 68.824819 
L 244.98812 68.953593 
L 244.141769 69.169629 
L 243.990968 69.871109 
L 244.100257 70.448051 
L 246.178434 71.647684 
L 245.232114 72.234793 
L 244.004523 72.269528 
L 243.611423 72.47455 
L 243.362347 73.30904 
L 243.783404 74.22825 
L 243.637686 74.894148 
L 243.713934 75.375357 
L 243.225948 75.882829 
L 242.60241 75.916717 
L 242.503288 76.239499 
L 241.91279 76.603795 
L 241.878902 77.05281 
L 241.468858 77.160404 
L 241.906013 77.637377 
L 241.647617 77.884758 
L 242.482108 78.925965 
L 243.823223 79.412257 
L 244.430664 79.764692 
L 246.286028 79.768928 
L 247.705933 80.200999 
L 248.71664 79.9587 
L 250.269555 79.835009 
L 251.304831 80.156944 
L 251.227736 80.444145 
L 251.900412 80.828773 
L 251.84365 81.093099 
L 251.49884 81.218484 
L 251.002382 81.065988 
L 250.820234 81.220178 
L 250.089949 81.218484 
L 250.045895 81.601418 
L 249.756153 81.663263 
L 249.77225 81.975879 
L 250.129767 82.141083 
L 250.527103 84.962254 
L 247.383997 84.94531 
L 246.04373 85.917046 
L 241.767072 86.886241 
L 240.137063 87.67583 
L 240.597091 87.785966 
L 242.452456 89.486293 
L 243.066675 89.821783 
L 242.827765 90.35806 
L 248.265084 91.724591 
L 249.429981 90.486834 
L 250.179752 90.120844 
L 251.291276 89.845505 
L 251.563227 89.46596 
L 252.468035 89.008473 
L 252.785734 89.008473 
L 252.981437 89.268563 
L 253.728666 89.382935 
L 254.455562 89.300756 
L 254.790205 89.013556 
L 255.407813 88.98221 
L 255.827176 89.168593 
L 257.514795 89.325325 
L 258.037517 89.892101 
L 258.755941 89.524417 
L 260.666373 88.951711 
L 261.106069 88.620456 
L 262.709816 88.320548 
L 263.382491 88.315465 
L 264.48046 88.601818 
L 264.710898 88.517945 
L 265.296312 88.639942 
L 266.282451 88.507779 
L 266.9331 87.263244 
L 267.664232 86.482127 
L 270.665856 84.513238 
L 272.153536 84.462407 
L 272.46361 83.526252 
L 273.170174 83.630458 
L 274.105481 83.377993 
L 274.069899 84.056598 
L 276.087078 84.664887 
L 277.360417 84.102347 
L 278.953997 84.307369 
L 279.498746 84.58525 
L 280.63145 84.741982 
L 281.116895 85.010544 
L 281.328694 85.377381 
L 282.876526 85.558681 
L 284.059214 85.313841 
L 284.412496 85.114749 
L 284.651406 84.980892 
L 284.412496 84.468337 
L 284.141393 83.885464 
L 284.412496 83.516933 
L 284.587866 83.279718 
L 288.162196 81.633611 
L 288.996687 81.753066 
L 290.5801 81.19561 
L 291.050295 80.694068 
L 291.622154 80.551739 
L 292.745539 79.542726 
L 293.058155 79.375828 
L 293.67068 79.049656 
L 292.771802 78.771775 
L 289.87862 78.357495 
L 289.338955 78.232957 
L 289.146641 78.203305 
L 288.996687 78.171959 
L 288.556143 77.933049 
L 287.972424 77.042643 
L 287.393787 76.621586 
L 288.066463 76.199681 
L 288.257082 75.674418 
L 288.88994 75.26268 
L 288.767943 74.392607 
L 288.996687 74.075755 
L 289.475354 73.766527 
L 288.996687 72.944745 
L 288.794206 72.814276 
L 288.996687 72.52877 
L 289.361829 72.061117 
L 289.227972 71.325749 
L 289.101739 70.909774 
L 288.772179 70.682725 
L 288.745916 69.112019 
L 289.312692 68.83075 
L 289.740527 68.126728 
L 288.939924 67.72685 
L 288.213028 66.26035 
L 287.093032 64.00426 
L 284.412496 62.976609 
L 284.011771 62.823266 
L 283.343332 62.263268 
L 283.01716 62.226838 
L 280.412026 61.632105 
L 278.984496 61.05008 
L 277.318057 60.805239 
L 276.567439 60.40282 
L 276.517455 60.213895 
L 277.156242 60.002095 
L 276.66995 59.692021 
L 277.12066 58.692327 
L 276.220935 57.790908 
L 275.677034 57.885794 
L 275.928652 56.989458 
L 275.524538 56.760714 
L 275.045871 56.058387 
L 275.492345 55.898267 
L 275.88375 56.038901 
L 276.294641 55.910975 
L 277.387527 56.415058 
L 278.254211 56.280353 
L 279.047189 56.362531 
L 279.618201 56.542984 
L 280.328153 57.085191 
L 281.138075 57.057234 
L 281.308361 57.007249 
L 281.558285 57.085191 
L 281.823458 57.039443 
L 282.200461 57.063164 
L 282.560521 57.030971 
L 282.599492 56.797144 
L 282.901941 56.73191 
L 283.258612 56.649731 
L 283.931288 56.55654 
L 284.412496 56.73191 
L 285.011465 56.94964 
L 285.266472 57.036054 
L 285.245292 56.726827 
L 285.761236 56.515874 
L 286.416968 56.724285 
L 288.330789 55.640718 
L 288.996687 52.935614 
L 289.854898 52.516251 
L 290.756318 52.557763 
L 292.708263 51.281035 
L 293.03274 51.19208 
L 293.826564 51.631776 
L 297.084889 52.365449 
L 303.893823 50.147484 
L 305.107011 49.75269 
L 306.734479 50.854047 
L 308.24588 50.800674 
L 307.917168 51.252231 
L 308.979554 51.620762 
L 309.263366 52.039278 
L 309.165091 52.226509 
L 309.425181 52.335797 
" style="fill:#1f77b4;"/>
   </g>
   <g id="matplotlib.axis_1">
    <g id="xtick_1">
     <g id="line2d_1">
      <defs>
       <path d="M 0 0 
L 0 3.5 
" id="m62f0426c76" style="stroke:#000000;stroke-width:0.8;"/>
      </defs>
      <g>
       <use style="stroke:#000000;stroke-width:0.8;" x="80.426616" xlink:href="#m62f0426c76" y="246.160041"/>
      </g>
     </g>
     <g id="text_1">
      <!-- 6.0 -->
      <g transform="translate(72.475054 260.758479)scale(0.1 -0.1)">
       <defs>
        <path d="M 33.015625 40.375 
Q 26.375 40.375 22.484375 35.828125 
Q 18.609375 31.296875 18.609375 23.390625 
Q 18.609375 15.53125 22.484375 10.953125 
Q 26.375 6.390625 33.015625 6.390625 
Q 39.65625 6.390625 43.53125 10.953125 
Q 47.40625 15.53125 47.40625 23.390625 
Q 47.40625 31.296875 43.53125 35.828125 
Q 39.65625 40.375 33.015625 40.375 
z
M 52.59375 71.296875 
L 52.59375 62.3125 
Q 48.875 64.0625 45.09375 64.984375 
Q 41.3125 65.921875 37.59375 65.921875 
Q 27.828125 65.921875 22.671875 59.328125 
Q 17.53125 52.734375 16.796875 39.40625 
Q 19.671875 43.65625 24.015625 45.921875 
Q 28.375 48.1875 33.59375 48.1875 
Q 44.578125 48.1875 50.953125 41.515625 
Q 57.328125 34.859375 57.328125 23.390625 
Q 57.328125 12.15625 50.6875 5.359375 
Q 44.046875 -1.421875 33.015625 -1.421875 
Q 20.359375 -1.421875 13.671875 8.265625 
Q 6.984375 17.96875 6.984375 36.375 
Q 6.984375 53.65625 15.1875 63.9375 
Q 23.390625 74.21875 37.203125 74.21875 
Q 40.921875 74.21875 44.703125 73.484375 
Q 48.484375 72.75 52.59375 71.296875 
z
" id="DejaVuSans-54"/>
        <path d="M 10.6875 12.40625 
L 21 12.40625 
L 21 0 
L 10.6875 0 
z
" id="DejaVuSans-46"/>
        <path d="M 31.78125 66.40625 
Q 24.171875 66.40625 20.328125 58.90625 
Q 16.5 51.421875 16.5 36.375 
Q 16.5 21.390625 20.328125 13.890625 
Q 24.171875 6.390625 31.78125 6.390625 
Q 39.453125 6.390625 43.28125 13.890625 
Q 47.125 21.390625 47.125 36.375 
Q 47.125 51.421875 43.28125 58.90625 
Q 39.453125 66.40625 31.78125 66.40625 
z
M 31.78125 74.21875 
Q 44.046875 74.21875 50.515625 64.515625 
Q 56.984375 54.828125 56.984375 36.375 
Q 56.984375 17.96875 50.515625 8.265625 
Q 44.046875 -1.421875 31.78125 -1.421875 
Q 19.53125 -1.421875 13.0625 8.265625 
Q 6.59375 17.96875 6.59375 36.375 
Q 6.59375 54.828125 13.0625 64.515625 
Q 19.53125 74.21875 31.78125 74.21875 
z
" id="DejaVuSans-48"/>
       </defs>
       <use xlink:href="#DejaVuSans-54"/>
       <use x="63.623047" xlink:href="#DejaVuSans-46"/>
       <use x="95.410156" xlink:href="#DejaVuSans-48"/>
      </g>
     </g>
    </g>
    <g id="xtick_2">
     <g id="line2d_2">
      <g>
       <use style="stroke:#000000;stroke-width:0.8;" x="122.786534" xlink:href="#m62f0426c76" y="246.160041"/>
      </g>
     </g>
     <g id="text_2">
      <!-- 6.5 -->
      <g transform="translate(114.834972 260.758479)scale(0.1 -0.1)">
       <defs>
        <path d="M 10.796875 72.90625 
L 49.515625 72.90625 
L 49.515625 64.59375 
L 19.828125 64.59375 
L 19.828125 46.734375 
Q 21.96875 47.46875 24.109375 47.828125 
Q 26.265625 48.1875 28.421875 48.1875 
Q 40.625 48.1875 47.75 41.5 
Q 54.890625 34.8125 54.890625 23.390625 
Q 54.890625 11.625 47.5625 5.09375 
Q 40.234375 -1.421875 26.90625 -1.421875 
Q 22.3125 -1.421875 17.546875 -0.640625 
Q 12.796875 0.140625 7.71875 1.703125 
L 7.71875 11.625 
Q 12.109375 9.234375 16.796875 8.0625 
Q 21.484375 6.890625 26.703125 6.890625 
Q 35.15625 6.890625 40.078125 11.328125 
Q 45.015625 15.765625 45.015625 23.390625 
Q 45.015625 31 40.078125 35.4375 
Q 35.15625 39.890625 26.703125 39.890625 
Q 22.75 39.890625 18.8125 39.015625 
Q 14.890625 38.140625 10.796875 36.28125 
z
" id="DejaVuSans-53"/>
       </defs>
       <use xlink:href="#DejaVuSans-54"/>
       <use x="63.623047" xlink:href="#DejaVuSans-46"/>
       <use x="95.410156" xlink:href="#DejaVuSans-53"/>
      </g>
     </g>
    </g>
    <g id="xtick_3">
     <g id="line2d_3">
      <g>
       <use style="stroke:#000000;stroke-width:0.8;" x="165.146452" xlink:href="#m62f0426c76" y="246.160041"/>
      </g>
     </g>
     <g id="text_3">
      <!-- 7.0 -->
      <g transform="translate(157.19489 260.758479)scale(0.1 -0.1)">
       <defs>
        <path d="M 8.203125 72.90625 
L 55.078125 72.90625 
L 55.078125 68.703125 
L 28.609375 0 
L 18.3125 0 
L 43.21875 64.59375 
L 8.203125 64.59375 
z
" id="DejaVuSans-55"/>
       </defs>
       <use xlink:href="#DejaVuSans-55"/>
       <use x="63.623047" xlink:href="#DejaVuSans-46"/>
       <use x="95.410156" xlink:href="#DejaVuSans-48"/>
      </g>
     </g>
    </g>
    <g id="xtick_4">
     <g id="line2d_4">
      <g>
       <use style="stroke:#000000;stroke-width:0.8;" x="207.50637" xlink:href="#m62f0426c76" y="246.160041"/>
      </g>
     </g>
     <g id="text_4">
      <!-- 7.5 -->
      <g transform="translate(199.554808 260.758479)scale(0.1 -0.1)">
       <use xlink:href="#DejaVuSans-55"/>
       <use x="63.623047" xlink:href="#DejaVuSans-46"/>
       <use x="95.410156" xlink:href="#DejaVuSans-53"/>
      </g>
     </g>
    </g>
    <g id="xtick_5">
     <g id="line2d_5">
      <g>
       <use style="stroke:#000000;stroke-width:0.8;" x="249.866289" xlink:href="#m62f0426c76" y="246.160041"/>
      </g>
     </g>
     <g id="text_5">
      <!-- 8.0 -->
      <g transform="translate(241.914726 260.758479)scale(0.1 -0.1)">
       <defs>
        <path d="M 31.78125 34.625 
Q 24.75 34.625 20.71875 30.859375 
Q 16.703125 27.09375 16.703125 20.515625 
Q 16.703125 13.921875 20.71875 10.15625 
Q 24.75 6.390625 31.78125 6.390625 
Q 38.8125 6.390625 42.859375 10.171875 
Q 46.921875 13.96875 46.921875 20.515625 
Q 46.921875 27.09375 42.890625 30.859375 
Q 38.875 34.625 31.78125 34.625 
z
M 21.921875 38.8125 
Q 15.578125 40.375 12.03125 44.71875 
Q 8.5 49.078125 8.5 55.328125 
Q 8.5 64.0625 14.71875 69.140625 
Q 20.953125 74.21875 31.78125 74.21875 
Q 42.671875 74.21875 48.875 69.140625 
Q 55.078125 64.0625 55.078125 55.328125 
Q 55.078125 49.078125 51.53125 44.71875 
Q 48 40.375 41.703125 38.8125 
Q 48.828125 37.15625 52.796875 32.3125 
Q 56.78125 27.484375 56.78125 20.515625 
Q 56.78125 9.90625 50.3125 4.234375 
Q 43.84375 -1.421875 31.78125 -1.421875 
Q 19.734375 -1.421875 13.25 4.234375 
Q 6.78125 9.90625 6.78125 20.515625 
Q 6.78125 27.484375 10.78125 32.3125 
Q 14.796875 37.15625 21.921875 38.8125 
z
M 18.3125 54.390625 
Q 18.3125 48.734375 21.84375 45.5625 
Q 25.390625 42.390625 31.78125 42.390625 
Q 38.140625 42.390625 41.71875 45.5625 
Q 45.3125 48.734375 45.3125 54.390625 
Q 45.3125 60.0625 41.71875 63.234375 
Q 38.140625 66.40625 31.78125 66.40625 
Q 25.390625 66.40625 21.84375 63.234375 
Q 18.3125 60.0625 18.3125 54.390625 
z
" id="DejaVuSans-56"/>
       </defs>
       <use xlink:href="#DejaVuSans-56"/>
       <use x="63.623047" xlink:href="#DejaVuSans-46"/>
       <use x="95.410156" xlink:href="#DejaVuSans-48"/>
      </g>
     </g>
    </g>
    <g id="xtick_6">
     <g id="line2d_6">
      <g>
       <use style="stroke:#000000;stroke-width:0.8;" x="292.226207" xlink:href="#m62f0426c76" y="246.160041"/>
      </g>
     </g>
     <g id="text_6">
      <!-- 8.5 -->
      <g transform="translate(284.274644 260.758479)scale(0.1 -0.1)">
       <use xlink:href="#DejaVuSans-56"/>
       <use x="63.623047" xlink:href="#DejaVuSans-46"/>
       <use x="95.410156" xlink:href="#DejaVuSans-53"/>
      </g>
     </g>
    </g>
    <g id="xtick_7">
     <g id="line2d_7">
      <g>
       <use style="stroke:#000000;stroke-width:0.8;" x="334.586125" xlink:href="#m62f0426c76" y="246.160041"/>
      </g>
     </g>
     <g id="text_7">
      <!-- 9.0 -->
      <g transform="translate(326.634562 260.758479)scale(0.1 -0.1)">
       <defs>
        <path d="M 10.984375 1.515625 
L 10.984375 10.5 
Q 14.703125 8.734375 18.5 7.8125 
Q 22.3125 6.890625 25.984375 6.890625 
Q 35.75 6.890625 40.890625 13.453125 
Q 46.046875 20.015625 46.78125 33.40625 
Q 43.953125 29.203125 39.59375 26.953125 
Q 35.25 24.703125 29.984375 24.703125 
Q 19.046875 24.703125 12.671875 31.3125 
Q 6.296875 37.9375 6.296875 49.421875 
Q 6.296875 60.640625 12.9375 67.421875 
Q 19.578125 74.21875 30.609375 74.21875 
Q 43.265625 74.21875 49.921875 64.515625 
Q 56.59375 54.828125 56.59375 36.375 
Q 56.59375 19.140625 48.40625 8.859375 
Q 40.234375 -1.421875 26.421875 -1.421875 
Q 22.703125 -1.421875 18.890625 -0.6875 
Q 15.09375 0.046875 10.984375 1.515625 
z
M 30.609375 32.421875 
Q 37.25 32.421875 41.125 36.953125 
Q 45.015625 41.5 45.015625 49.421875 
Q 45.015625 57.28125 41.125 61.84375 
Q 37.25 66.40625 30.609375 66.40625 
Q 23.96875 66.40625 20.09375 61.84375 
Q 16.21875 57.28125 16.21875 49.421875 
Q 16.21875 41.5 20.09375 36.953125 
Q 23.96875 32.421875 30.609375 32.421875 
z
" id="DejaVuSans-57"/>
       </defs>
       <use xlink:href="#DejaVuSans-57"/>
       <use x="63.623047" xlink:href="#DejaVuSans-46"/>
       <use x="95.410156" xlink:href="#DejaVuSans-48"/>
      </g>
     </g>
    </g>
    <g id="xtick_8">
     <g id="line2d_8">
      <g>
       <use style="stroke:#000000;stroke-width:0.8;" x="376.946043" xlink:href="#m62f0426c76" y="246.160041"/>
      </g>
     </g>
     <g id="text_8">
      <!-- 9.5 -->
      <g transform="translate(368.99448 260.758479)scale(0.1 -0.1)">
       <use xlink:href="#DejaVuSans-57"/>
       <use x="63.623047" xlink:href="#DejaVuSans-46"/>
       <use x="95.410156" xlink:href="#DejaVuSans-53"/>
      </g>
     </g>
    </g>
   </g>
   <g id="matplotlib.axis_2">
    <g id="ytick_1">
     <g id="line2d_9">
      <defs>
       <path d="M 0 0 
L -3.5 0 
" id="m15937a052f" style="stroke:#000000;stroke-width:0.8;"/>
      </defs>
      <g>
       <use style="stroke:#000000;stroke-width:0.8;" x="54" xlink:href="#m15937a052f" y="221.812747"/>
      </g>
     </g>
     <g id="text_9">
      <!-- 50.5 -->
      <g transform="translate(24.734375 225.611965)scale(0.1 -0.1)">
       <use xlink:href="#DejaVuSans-53"/>
       <use x="63.623047" xlink:href="#DejaVuSans-48"/>
       <use x="127.246094" xlink:href="#DejaVuSans-46"/>
       <use x="159.033203" xlink:href="#DejaVuSans-53"/>
      </g>
     </g>
    </g>
    <g id="ytick_2">
     <g id="line2d_10">
      <g>
       <use style="stroke:#000000;stroke-width:0.8;" x="54" xlink:href="#m15937a052f" y="179.452828"/>
      </g>
     </g>
     <g id="text_10">
      <!-- 51.0 -->
      <g transform="translate(24.734375 183.252047)scale(0.1 -0.1)">
       <defs>
        <path d="M 12.40625 8.296875 
L 28.515625 8.296875 
L 28.515625 63.921875 
L 10.984375 60.40625 
L 10.984375 69.390625 
L 28.421875 72.90625 
L 38.28125 72.90625 
L 38.28125 8.296875 
L 54.390625 8.296875 
L 54.390625 0 
L 12.40625 0 
z
" id="DejaVuSans-49"/>
       </defs>
       <use xlink:href="#DejaVuSans-53"/>
       <use x="63.623047" xlink:href="#DejaVuSans-49"/>
       <use x="127.246094" xlink:href="#DejaVuSans-46"/>
       <use x="159.033203" xlink:href="#DejaVuSans-48"/>
      </g>
     </g>
    </g>
    <g id="ytick_3">
     <g id="line2d_11">
      <g>
       <use style="stroke:#000000;stroke-width:0.8;" x="54" xlink:href="#m15937a052f" y="137.09291"/>
      </g>
     </g>
     <g id="text_11">
      <!-- 51.5 -->
      <g transform="translate(24.734375 140.892129)scale(0.1 -0.1)">
       <use xlink:href="#DejaVuSans-53"/>
       <use x="63.623047" xlink:href="#DejaVuSans-49"/>
       <use x="127.246094" xlink:href="#DejaVuSans-46"/>
       <use x="159.033203" xlink:href="#DejaVuSans-53"/>
      </g>
     </g>
    </g>
    <g id="ytick_4">
     <g id="line2d_12">
      <g>
       <use style="stroke:#000000;stroke-width:0.8;" x="54" xlink:href="#m15937a052f" y="94.732992"/>
      </g>
     </g>
     <g id="text_12">
      <!-- 52.0 -->
      <g transform="translate(24.734375 98.532211)scale(0.1 -0.1)">
       <defs>
        <path d="M 19.1875 8.296875 
L 53.609375 8.296875 
L 53.609375 0 
L 7.328125 0 
L 7.328125 8.296875 
Q 12.9375 14.109375 22.625 23.890625 
Q 32.328125 33.6875 34.8125 36.53125 
Q 39.546875 41.84375 41.421875 45.53125 
Q 43.3125 49.21875 43.3125 52.78125 
Q 43.3125 58.59375 39.234375 62.25 
Q 35.15625 65.921875 28.609375 65.921875 
Q 23.96875 65.921875 18.8125 64.3125 
Q 13.671875 62.703125 7.8125 59.421875 
L 7.8125 69.390625 
Q 13.765625 71.78125 18.9375 73 
Q 24.125 74.21875 28.421875 74.21875 
Q 39.75 74.21875 46.484375 68.546875 
Q 53.21875 62.890625 53.21875 53.421875 
Q 53.21875 48.921875 51.53125 44.890625 
Q 49.859375 40.875 45.40625 35.40625 
Q 44.1875 33.984375 37.640625 27.21875 
Q 31.109375 20.453125 19.1875 8.296875 
z
" id="DejaVuSans-50"/>
       </defs>
       <use xlink:href="#DejaVuSans-53"/>
       <use x="63.623047" xlink:href="#DejaVuSans-50"/>
       <use x="127.246094" xlink:href="#DejaVuSans-46"/>
       <use x="159.033203" xlink:href="#DejaVuSans-48"/>
      </g>
     </g>
    </g>
    <g id="ytick_5">
     <g id="line2d_13">
      <g>
       <use style="stroke:#000000;stroke-width:0.8;" x="54" xlink:href="#m15937a052f" y="52.373074"/>
      </g>
     </g>
     <g id="text_13">
      <!-- 52.5 -->
      <g transform="translate(24.734375 56.172293)scale(0.1 -0.1)">
       <use xlink:href="#DejaVuSans-53"/>
       <use x="63.623047" xlink:href="#DejaVuSans-50"/>
       <use x="127.246094" xlink:href="#DejaVuSans-46"/>
       <use x="159.033203" xlink:href="#DejaVuSans-53"/>
      </g>
     </g>
    </g>
   </g>
   <g id="patch_3">
    <path d="M 54 246.160041 
L 54 40.399959 
" style="fill:none;stroke:#000000;stroke-linecap:square;stroke-linejoin:miter;stroke-width:0.8;"/>
   </g>
   <g id="patch_4">
    <path d="M 388.8 246.160041 
L 388.8 40.399959 
" style="fill:none;stroke:#000000;stroke-linecap:square;stroke-linejoin:miter;stroke-width:0.8;"/>
   </g>
   <g id="patch_5">
    <path d="M 54 246.160041 
L 388.8 246.160041 
" style="fill:none;stroke:#000000;stroke-linecap:square;stroke-linejoin:miter;stroke-width:0.8;"/>
   </g>
   <g id="patch_6">
    <path d="M 54 40.399959 
L 388.8 40.399959 
" style="fill:none;stroke:#000000;stroke-linecap:square;stroke-linejoin:miter;stroke-width:0.8;"/>
   </g>
  </g>
 </g>
 <defs>
  <clipPath id="pc5afcde57c">
   <rect height="205.760083" width="334.8" x="54" y="40.399959"/>
  </clipPath>
 </defs>
</svg>
